<svg width="90" height="90" fill="none" xmlns="http://www.w3.org/2000/svg"><path fill-rule="evenodd" clip-rule="evenodd" d="M41.394 37.807a3.566 3.566 0 0 0 3.563 3.563 3.566 3.566 0 0 0 3.563-3.563 3.566 3.566 0 0 0-3.563-3.563 3.566 3.566 0 0 0-3.563 3.563Zm33.04-23.68L63.41 25.151l1.49 1.49 11.023-11.023a5.13 5.13 0 0 0 2.834.845 5.135 5.135 0 0 0 3.656-1.515 5.137 5.137 0 0 0 1.514-3.654 5.14 5.14 0 0 0-1.514-3.657 5.14 5.14 0 0 0-3.656-1.513c-1.38 0-2.679.538-3.654 1.514a5.132 5.132 0 0 0-1.516 3.656 5.13 5.13 0 0 0 .846 2.833Zm-28.422 3.817v-4.982a5.177 5.177 0 0 0 4.115-5.06 5.175 5.175 0 0 0-5.17-5.17 5.175 5.175 0 0 0-5.17 5.17 5.177 5.177 0 0 0 4.115 5.06v4.982h2.11ZM26.503 25.15 15.48 14.127a5.13 5.13 0 0 0 .846-2.833 5.135 5.135 0 0 0-1.516-3.657 5.136 5.136 0 0 0-3.654-1.513c-1.382 0-2.68.538-3.656 1.514a5.14 5.14 0 0 0-1.514 3.656c0 1.38.538 2.679 1.514 3.654a5.132 5.132 0 0 0 3.656 1.515 5.13 5.13 0 0 0 2.834-.845l11.023 11.023 1.49-1.49Zm-8.697 18.89h-4.98a5.18 5.18 0 0 0-5.063-4.115 5.175 5.175 0 0 0-5.17 5.17 5.175 5.175 0 0 0 5.17 5.17 5.18 5.18 0 0 0 5.063-4.116h4.98V44.04Zm7.207 19.508L13.99 74.571a5.13 5.13 0 0 0-2.834-.845A5.135 5.135 0 0 0 7.5 75.241a5.137 5.137 0 0 0-1.514 3.655c0 1.381.538 2.68 1.514 3.656a5.14 5.14 0 0 0 3.656 1.513c1.38 0 2.679-.537 3.654-1.513a5.132 5.132 0 0 0 1.516-3.656 5.13 5.13 0 0 0-.846-2.834L26.503 65.04l-1.49-1.49Zm18.89 8.698v4.982a5.177 5.177 0 0 0-4.116 5.06 5.175 5.175 0 0 0 5.17 5.17 5.175 5.175 0 0 0 5.17-5.17 5.177 5.177 0 0 0-4.115-5.06v-4.982h-2.11Zm19.508-7.207 11.023 11.023a5.13 5.13 0 0 0-.846 2.834c0 1.381.538 2.68 1.516 3.656a5.137 5.137 0 0 0 3.654 1.513c1.382 0 2.68-.537 3.656-1.513a5.138 5.138 0 0 0 1.514-3.656c0-1.38-.538-2.68-1.514-3.655a5.132 5.132 0 0 0-3.656-1.515 5.13 5.13 0 0 0-2.834.846L64.901 63.547l-1.49 1.49Zm8.697-18.89h4.98a5.18 5.18 0 0 0 5.063 4.115 5.175 5.175 0 0 0 5.17-5.17 5.175 5.175 0 0 0-5.17-5.169 5.18 5.18 0 0 0-5.063 4.115h-4.98v2.11Zm-43.522-1.054c0-9.027 7.345-16.37 16.371-16.37s16.37 7.343 16.37 16.37c0 9.026-7.344 16.37-16.37 16.37s-16.37-7.344-16.37-16.37Zm36.628 14.797a.266.266 0 0 1-.037.348l-5.075 5.075a.266.266 0 0 1-.348.037l-4.051-2.618a2.342 2.342 0 0 0-2.333-.145c-.649.312-1.32.59-1.995.827a2.34 2.34 0 0 0-1.545 1.753l-1.013 4.713a.264.264 0 0 1-.27.22h-7.18a.264.264 0 0 1-.27-.22l-1.014-4.713a2.338 2.338 0 0 0-1.544-1.753 19.314 19.314 0 0 1-1.995-.827 2.39 2.39 0 0 0-1.044-.245c-.447 0-.89.132-1.288.39l-4.052 2.618a.266.266 0 0 1-.348-.037l-5.075-5.075a.266.266 0 0 1-.037-.348l2.617-4.052a2.342 2.342 0 0 0 .146-2.332 19.149 19.149 0 0 1-.828-1.995 2.344 2.344 0 0 0-1.752-1.546l-4.713-1.012a.263.263 0 0 1-.22-.27v-7.18c0-.139.083-.242.22-.27l4.713-1.013a2.343 2.343 0 0 0 1.752-1.545 19.48 19.48 0 0 1 .828-1.995 2.338 2.338 0 0 0-.146-2.333L24.7 30.298a.266.266 0 0 1 .037-.349l5.075-5.074a.266.266 0 0 1 .348-.037l4.05 2.617a2.341 2.341 0 0 0 2.334.146c.649-.313 1.32-.59 1.995-.828a2.338 2.338 0 0 0 1.544-1.753l1.014-4.712a.264.264 0 0 1 .27-.22h7.18c.138 0 .242.084.27.22l1.013 4.712a2.34 2.34 0 0 0 1.545 1.753c.675.237 1.346.515 1.995.828.768.37 1.617.316 2.333-.146l4.051-2.617a.266.266 0 0 1 .348.037l5.075 5.074a.266.266 0 0 1 .037.348l-2.617 4.052a2.341 2.341 0 0 0-.146 2.333c.313.648.59 1.32.828 1.995a2.338 2.338 0 0 0 1.752 1.543l4.713 1.015c.135.028.22.131.22.27v7.18a.265.265 0 0 1-.22.27l-4.713 1.012a2.34 2.34 0 0 0-1.752 1.546 19.47 19.47 0 0 1-.828 1.995 2.342 2.342 0 0 0 .146 2.332l2.617 4.052Zm-17.53-9.215.92 8.203c2.09-.553 3.99-1.57 5.59-2.934v-2.452a5.348 5.348 0 0 0-5.247-5.342l-1.264 2.526Zm-6.376 8.203.923-8.204-1.264-2.524a5.348 5.348 0 0 0-5.247 5.342v2.452a14.198 14.198 0 0 0 5.588 2.934Zm4.35-7.341h-1.402l-.869 7.727c.517.058 1.04.09 1.57.09s1.053-.032 1.57-.09l-.869-7.727Zm.932-3.391h-3.266l.642 1.281h1.982l.642-1.281Z" fill="#00AAA3"/></svg>