<svg width="90" height="90" fill="none" xmlns="http://www.w3.org/2000/svg"><path fill-rule="evenodd" clip-rule="evenodd" d="M85.052 63.269 78.144 50.91H55.405l6.265 11.785c.165.31.163.685-.004.995L55.54 75.06l22.732.024 6.78-11.816ZM20.1 24.314l8.607-8.631a1.053 1.053 0 1 0-1.493-1.489l-7.86 7.88-2.602-2.608a1.055 1.055 0 1 0-1.494 1.489l3.348 3.357a1.053 1.053 0 0 0 1.494.002Zm25.403 8.89 8.608-8.63a1.053 1.053 0 0 0-.004-1.49 1.053 1.053 0 0 0-1.49.001l-7.861 7.882-2.602-2.608a1.053 1.053 0 0 0-1.49-.002 1.053 1.053 0 0 0-.004 1.49l3.348 3.358a1.057 1.057 0 0 0 1.495 0Zm19.59-12.248 3.349 3.358a1.054 1.054 0 0 0 1.494 0l8.606-8.631a1.053 1.053 0 1 0-1.492-1.489l-7.86 7.88-2.602-2.608a1.057 1.057 0 0 0-1.493-.002 1.057 1.057 0 0 0-.002 1.492Zm-5.023.857c0-4.896 3.974-8.877 8.857-8.877a8.87 8.87 0 0 1 4.103 1.007 1.054 1.054 0 1 1-.98 1.868 6.669 6.669 0 0 0-3.123-.766c-3.72 0-6.748 3.036-6.748 6.768 0 3.731 3.029 6.767 6.748 6.767 3.721 0 6.748-3.036 6.748-6.767 0-.134-.003-.268-.012-.4a1.054 1.054 0 1 1 2.106-.123c.01.173.016.349.016.523 0 4.352-3.141 7.98-7.27 8.732v18.259h-2.11v-18.13c-4.64-.271-8.335-4.142-8.335-8.861Zm-24.432 8.89c0-4.895 3.972-8.878 8.857-8.878a8.84 8.84 0 0 1 4.101 1.009 1.054 1.054 0 1 1-.979 1.867 6.64 6.64 0 0 0-3.122-.767c-3.721 0-6.748 3.036-6.748 6.768 0 3.732 3.027 6.767 6.748 6.767 3.72 0 6.747-3.035 6.747-6.767 0-.134-.004-.267-.01-.4a1.054 1.054 0 1 1 2.105-.12c.009.172.014.348.014.52 0 4.352-3.141 7.98-7.268 8.733v9.367h-2.11v-9.237c-4.642-.271-8.335-4.142-8.335-8.861Zm-14.96 18.1h-2.109v-18.13c-4.64-.272-8.335-4.14-8.335-8.86 0-4.896 3.974-8.877 8.857-8.877 1.428 0 2.846.348 4.103 1.007a1.056 1.056 0 1 1-.98 1.868 6.657 6.657 0 0 0-3.123-.766c-3.72 0-6.748 3.036-6.748 6.768 0 3.731 3.027 6.767 6.748 6.767 3.722 0 6.749-3.036 6.749-6.767 0-.134-.004-.268-.013-.4a1.054 1.054 0 0 1 2.106-.12 9 9 0 0 1 .016.52c0 4.352-3.141 7.98-7.27 8.732v18.259Zm14.337 14.362-7.138-12.252H5.42l6.409 11.832c.174.32.17.705-.009 1.021L5.455 75.011l22.67.025 6.89-11.871Zm24.527.023-6.396 11.87-22.581-.023 6.583-11.343c.191-.328.19-.733 0-1.06l-6.83-11.72h22.7l6.524 12.276Z" fill="#00AAA3"/></svg>