<svg width="90" height="90" fill="none" xmlns="http://www.w3.org/2000/svg"><g clip-path="url(#a)"><path fill-rule="evenodd" clip-rule="evenodd" d="M59.626 90.348c7.042-1.582 13.426-5.1 18.587-10.255 5.84-5.84 9.562-13.234 10.772-21.382a1.057 1.057 0 0 0-2.09-.311c-1.138 7.697-4.66 14.683-10.178 20.203-4.968 4.969-11.152 8.326-17.965 9.775l3.393-5.73a1.058 1.058 0 0 0-.373-1.446 1.052 1.052 0 0 0-1.445.371l-4.567 7.715a1.06 1.06 0 0 0 .373 1.445l7.715 4.565a1.053 1.053 0 1 0 1.072-1.816l-5.294-3.134ZM16.547 27.561c4.975-4.976 11.15-8.33 17.965-9.777l-3.393 5.732a1.059 1.059 0 0 0 .91 1.593c.358 0 .714-.185.908-.519l4.567-7.717a1.06 1.06 0 0 0-.373-1.445l-7.717-4.563a1.056 1.056 0 0 0-1.445.371 1.059 1.059 0 0 0 .373 1.445l5.296 3.136c-7.042 1.58-13.419 5.09-18.58 10.253-5.846 5.841-9.57 13.237-10.779 21.384a1.054 1.054 0 0 0 1.046 1.21c.515 0 .967-.377 1.044-.9 1.138-7.7 4.66-14.685 10.178-20.203Zm16.711 25.522c0 1.15.15 2.283.436 3.383l-4.566 4.564c-.108-.032-.215-.06-.315-.088a19.051 19.051 0 0 1-1.267-3.985 1.06 1.06 0 0 0-1.037-.846h-4.875v-6.055h4.875c.5 0 .936-.355 1.037-.846a19.258 19.258 0 0 1 2.847-6.882c.28-.418.222-.975-.128-1.329l-3.45-3.448 4.28-4.282 3.449 3.448c.35.355.908.41 1.33.132a19.24 19.24 0 0 1 6.878-2.853c.494-.1.844-.532.844-1.033v-4.875h6.063v4.875c0 .5.35.933.844 1.033 1.367.276 2.705.703 3.98 1.268.035.107.064.212.093.32l-4.567 4.563a13.356 13.356 0 0 0-3.379-.434c-7.374-.004-13.372 5.996-13.372 13.37Zm3.48 16.465a1.054 1.054 0 0 0-.252 1.095c1.53 4.372.408 9.313-2.864 12.586a12.135 12.135 0 0 1-12.46 2.911l7.672-7.671c.2-.197.308-.466.308-.745 0-.28-.107-.547-.308-.746l-6.098-6.097a1.058 1.058 0 0 0-1.496 0l-7.665 7.67a12.127 12.127 0 0 1 2.905-12.457c3.279-3.273 8.216-4.4 12.59-2.867.38.134.808.037 1.095-.25l5.461-5.463c0-.004.007-.005.007-.009l15.423-15.42v-.003l5.469-5.467a1.05 1.05 0 0 0 .251-1.095c-1.53-4.371-.408-9.313 2.87-12.587a12.124 12.124 0 0 1 12.455-2.911l-7.673 7.67a1.07 1.07 0 0 0-.308.746c0 .28.115.549.308.745l6.098 6.1a1.062 1.062 0 0 0 1.496 0l7.673-7.671c1.46 4.32.372 9.169-2.913 12.457-3.278 3.274-8.216 4.399-12.59 2.867a1.058 1.058 0 0 0-1.095.25l-5.461 5.465c-.007.002-.007.004-.007.005L42.206 64.078v.003l-5.469 5.467Zm12.924 3.656v4.873H43.6v-4.873c0-.5-.352-.935-.844-1.033a19.248 19.248 0 0 1-3.98-1.268c-.028-.105-.065-.212-.093-.318l4.567-4.563c1.102.286 2.232.434 3.386.434 7.372 0 13.37-5.998 13.37-13.372 0-1.148-.143-2.283-.437-3.383l4.567-4.564c.108.032.215.06.322.088a19.883 19.883 0 0 1 1.267 3.985c.094.492.53.846 1.03.846h4.875v6.055h-4.875c-.5 0-.936.354-1.03.846a19.348 19.348 0 0 1-2.856 6.883c-.28.419-.222.974.128 1.33l3.449 3.445-4.28 4.282-3.45-3.45a1.056 1.056 0 0 0-1.33-.133 19.243 19.243 0 0 1-6.878 2.853 1.056 1.056 0 0 0-.846 1.037Z" fill="#00AAA3"/></g><defs><clipPath id="a"><path fill="#fff" d="M0 0h90v90H0z"/></clipPath></defs></svg>