<svg width="90" height="90" fill="none" xmlns="http://www.w3.org/2000/svg"><path fill-rule="evenodd" clip-rule="evenodd" d="M47.332 63.946c16.284 0 29.533-13.249 29.533-29.535a1.056 1.056 0 0 0-2.11 0c0 15.122-12.302 27.424-27.423 27.424-5.395 0-10.535-1.535-14.987-4.453l3.435-.92a1.055 1.055 0 0 0-.547-2.037l-5.593 1.5a1.054 1.054 0 0 0-.746 1.292l1.498 5.593a1.057 1.057 0 0 0 1.292.747c.562-.15.896-.73.745-1.292l-.75-2.802c4.683 2.94 10.039 4.483 15.653 4.483ZM15.254 81.077l5.217-4.63a1.054 1.054 0 1 0-1.4-1.578l-4.47 3.967-2.397-2.427a1.055 1.055 0 1 0-1.501 1.481l3.1 3.138c.206.21.477.315.751.315.252 0 .501-.088.7-.266ZM50.57 79.72l-1.747-1.746 1.747-1.745a1.056 1.056 0 0 0-1.492-1.493l-1.746 1.746-1.745-1.746a1.057 1.057 0 0 0-1.493 0 1.057 1.057 0 0 0 0 1.493l1.746 1.745-1.746 1.746a1.052 1.052 0 0 0 .747 1.8c.27 0 .54-.102.745-.308l1.746-1.747 1.745 1.747a1.055 1.055 0 1 0 1.492-1.492Zm23.57-1.829 3.1 3.138a1.05 1.05 0 0 0 1.45.05l5.219-4.63a1.054 1.054 0 0 0-1.401-1.58l-4.47 3.968-2.396-2.427a1.055 1.055 0 1 0-1.501 1.482Zm-47.932-.972h10.53c.53-5.377 5.078-9.59 10.592-9.59s10.062 4.213 10.593 9.59h10.53c.534-5.377 5.081-9.59 10.595-9.59 5.87 0 10.646 4.776 10.646 10.645 0 5.87-4.776 10.645-10.646 10.645-5.514 0-10.061-4.213-10.594-9.59H57.923c-.531 5.377-5.079 9.59-10.593 9.59s-10.061-4.213-10.592-9.59h-10.53c-.532 5.377-5.08 9.59-10.594 9.59-5.87 0-10.645-4.776-10.645-10.645 0-5.871 4.776-10.645 10.645-10.645 5.514 0 10.062 4.213 10.594 9.59Zm12.588 1.055c0-4.707 3.829-8.538 8.536-8.538 4.707 0 8.536 3.83 8.536 8.538 0 4.707-3.829 8.536-8.536 8.536-4.707 0-8.536-3.829-8.536-8.536Zm31.716 0c0-4.707 3.83-8.538 8.538-8.538 4.706 0 8.536 3.83 8.536 8.538 0 4.707-3.83 8.536-8.536 8.536-4.71 0-8.538-3.829-8.538-8.536Zm-54.898-8.538c4.707 0 8.536 3.83 8.536 8.538 0 4.707-3.828 8.536-8.536 8.536-4.707 0-8.536-3.829-8.536-8.536-.002-4.707 3.829-8.538 8.536-8.538Zm4.294-35.024a1.054 1.054 0 1 1-2.109 0c0-16.284 13.249-29.533 29.533-29.533 5.614 0 10.97 1.542 15.652 4.482l-.751-2.802c-.15-.562.185-1.14.747-1.292a1.052 1.052 0 0 1 1.29.746l1.5 5.593a1.055 1.055 0 0 1-.746 1.292l-5.593 1.5a1.058 1.058 0 0 1-1.292-.748 1.055 1.055 0 0 1 .745-1.292l3.435-.919c-4.452-2.92-9.59-4.452-14.987-4.452C32.21 6.989 19.908 19.29 19.908 34.41Zm13.789 3.507a1.055 1.055 0 1 1 1.054 1.828L31.886 41.4a1.056 1.056 0 0 1-1.055-1.826l2.866-1.656Zm-1.5-7.71H28.89a1.054 1.054 0 1 0 0 2.11h3.308a1.056 1.056 0 0 0 0-2.11Zm2.553-7.427-2.866-1.654a1.055 1.055 0 0 0-1.055 1.828l2.866 1.654a1.052 1.052 0 0 0 1.441-.387 1.05 1.05 0 0 0-.386-1.44Zm5.927-5.154-1.654-2.863a1.054 1.054 0 1 0-1.827 1.055l1.655 2.865a1.056 1.056 0 1 0 1.826-1.057Zm7.71-1.5V12.82a1.054 1.054 0 1 0-2.11 0v3.308a1.056 1.056 0 0 0 2.11 0Zm6.512 3.084c.364 0 .72-.19.914-.527l1.655-2.865a1.055 1.055 0 1 0-1.828-1.055l-1.655 2.865a1.057 1.057 0 0 0 .914 1.582Zm6.067 5.398 2.863-1.654a1.055 1.055 0 0 0-1.055-1.828l-2.863 1.654a1.055 1.055 0 1 0 1.055 1.828Zm1.499 7.708h3.308a1.054 1.054 0 1 0 0-2.109h-3.308a1.054 1.054 0 1 0 0 2.11Zm-2.552 7.427a1.055 1.055 0 1 1 1.054-1.828l2.864 1.654a1.055 1.055 0 1 1-1.055 1.827l-2.863-1.653Zm-10.176 14.45-.236.244c-.232.239-.95.5-1.984.513-1.192.016-2.052-.302-2.282-.53l-.23-.226h4.732v-.002Zm1.436-3.054v.942H43.49v-.942h7.682Zm0-3.051v.942H43.49v-.942h7.682Zm3.431-7.295c-1.38 1.61-2.691 3.14-3.236 5.185h-8.072c-.545-2.044-1.858-3.575-3.236-5.185-2.048-2.388-4.164-4.857-4.055-9.507v-.024c0-6.246 5.081-11.328 11.327-11.328 6.245 0 11.327 5.082 11.327 11.328v.024c.108 4.65-2.007 7.12-4.055 9.507ZM48.387 22.54c0-.581-.473-1.054-1.055-1.054-5.634 0-10.216 4.584-10.216 10.218a1.054 1.054 0 1 0 2.11 0c-.001-4.47 3.636-8.107 8.106-8.107a1.057 1.057 0 0 0 1.055-1.057Z" fill="#00AAA3"/></svg>