<svg width="90" height="90" fill="none" xmlns="http://www.w3.org/2000/svg"><path fill-rule="evenodd" clip-rule="evenodd" d="M32.495 61.483 30.36 63.62a1.606 1.606 0 0 1-2.02.214l-1.475-.954a8.048 8.048 0 0 1-.476.199l-.37 1.717a1.605 1.605 0 0 1-1.58 1.276h-3.018a1.603 1.603 0 0 1-1.578-1.276l-.37-1.718a8.877 8.877 0 0 1-.477-.198l-1.475.954a1.606 1.606 0 0 1-2.02-.214l-2.134-2.134a1.606 1.606 0 0 1-.215-2.02l.953-1.475c-.07-.158-.135-.318-.198-.478l-1.716-.369a1.604 1.604 0 0 1-1.276-1.578v-3.02c0-.769.525-1.417 1.276-1.579l1.716-.369c.063-.16.128-.32.198-.478l-.953-1.475a1.603 1.603 0 0 1 .215-2.018l2.134-2.136a1.606 1.606 0 0 1 2.02-.214l1.475.954c.158-.07.316-.137.478-.198l.369-1.718c.16-.75.81-1.276 1.578-1.276h3.018c.77 0 1.419.526 1.58 1.278l.37 1.716a9 9 0 0 1 .476.198l1.475-.954a1.605 1.605 0 0 1 2.02.214l2.134 2.136a1.6 1.6 0 0 1 .214 2.018l-.953 1.475c.07.158.137.318.2.478l1.715.37a1.6 1.6 0 0 1 1.276 1.578v3.02c0 .768-.524 1.416-1.276 1.578l-1.716.37c-.061.16-.128.32-.199.477l.953 1.475a1.605 1.605 0 0 1-.214 2.018ZM63.803 20.73a3.182 3.182 0 0 0 3.178 3.178 3.182 3.182 0 0 0 3.178-3.178 3.182 3.182 0 0 0-3.178-3.178 3.182 3.182 0 0 0-3.178 3.178Zm-4.61 6.22.884-1.368a1.607 1.607 0 0 0 .098-1.579 7.445 7.445 0 0 1-.322-.777 1.607 1.607 0 0 0-1.184-1.044l-1.593-.341v-2.22l1.59-.343c.556-.118 1-.51 1.187-1.044.092-.264.2-.524.322-.777a1.607 1.607 0 0 0-.098-1.579l-.885-1.367 1.57-1.57 1.368.884a1.607 1.607 0 0 0 1.578.099 8.08 8.08 0 0 1 .777-.324 1.597 1.597 0 0 0 1.044-1.184l.343-1.591h2.22l.341 1.59c.12.556.512.999 1.046 1.185.262.094.524.2.775.324a1.607 1.607 0 0 0 1.579-.099l1.37-.884 1.569 1.57-.884 1.367a1.598 1.598 0 0 0-.099 1.579c.121.253.23.513.322.777.188.534.631.924 1.185 1.044l1.592.343v2.22l-1.592.34c-.554.12-.997.51-1.185 1.047a7.54 7.54 0 0 1-.322.775 1.598 1.598 0 0 0 .099 1.579l.884 1.369-1.57 1.57-1.37-.885a1.598 1.598 0 0 0-1.578-.098 7.838 7.838 0 0 1-.775.322 1.604 1.604 0 0 0-1.046 1.184l-.34 1.593h-2.221l-.343-1.593a1.601 1.601 0 0 0-1.044-1.184 7.867 7.867 0 0 1-.777-.322 1.599 1.599 0 0 0-1.578.098l-1.368.885-1.57-1.57Zm7.788-.933a5.294 5.294 0 0 1-5.287-5.287 5.294 5.294 0 0 1 5.287-5.287 5.293 5.293 0 0 1 5.288 5.287 5.291 5.291 0 0 1-5.288 5.287Zm-19.184 7.784a1.06 1.06 0 0 0-1.18-.925l-1.392.175a1.69 1.69 0 0 1-1.658-.751c-.399-.587-.443-1.246-.118-1.763l4.57-7.24c.087-.138.141-.294.157-.456.984-9.601 5.785-16.024 13.17-17.622 7.597-1.644 16.321 2.245 20.292 9.046 4.438 7.602 2.288 17.244-5.901 26.45a1.046 1.046 0 0 0-.267.7v10.593l-17.71-.253v-8.727a1.053 1.053 0 0 0-1.236-1.04l-5.658.984a1.794 1.794 0 0 1-1.452-.347 1.798 1.798 0 0 1-.744-1.293l-.873-7.53Zm11.756-3.507-2.134-2.134a1.604 1.604 0 0 1-.215-2.02l.953-1.474c-.07-.159-.137-.318-.199-.478l-1.715-.37a1.602 1.602 0 0 1-1.276-1.578v-3.018c0-.77.523-1.419 1.276-1.58l1.715-.37c.062-.16.129-.32.199-.478l-.953-1.475a1.601 1.601 0 0 1 .215-2.018l2.134-2.133a1.601 1.601 0 0 1 2.02-.215l1.474.953c.157-.07.317-.137.477-.199l.369-1.717a1.605 1.605 0 0 1 1.58-1.275h3.018c.768 0 1.419.524 1.579 1.275l.369 1.717c.162.062.32.128.478.199l1.475-.953a1.604 1.604 0 0 1 2.02.213l2.133 2.136c.544.543.632 1.372.215 2.02l-.953 1.472c.07.159.136.318.199.478l1.716.37c.75.161 1.276.81 1.276 1.58v3.018c0 .768-.526 1.417-1.276 1.579l-1.716.369c-.062.16-.129.32-.199.478l.953 1.474a1.603 1.603 0 0 1-.215 2.018l-2.133 2.136a1.605 1.605 0 0 1-2.02.215l-1.475-.953a9.99 9.99 0 0 1-.478.197l-.37 1.717c-.16.75-.81 1.276-1.578 1.276h-3.018a1.606 1.606 0 0 1-1.58-1.276l-.37-1.717a9.392 9.392 0 0 1-.476-.197l-1.475.953a1.606 1.606 0 0 1-2.02-.215Zm-35.425-.998V15.108h11.529l-.921.922a1.055 1.055 0 0 0 1.49 1.49l2.723-2.72a1.058 1.058 0 0 0 0-1.493l-2.72-2.721a1.054 1.054 0 1 0-1.491 1.492l.92.921H23.076c-.584 0-1.055.471-1.055 1.055v15.242a1.054 1.054 0 1 0 2.108 0Zm28.877 41.767-2.721 2.723a1.051 1.051 0 0 0 0 1.49l2.72 2.722c.207.207.477.31.746.31a1.055 1.055 0 0 0 .747-1.8l-.92-.922H66.27c.582 0 1.055-.473 1.055-1.055V59.29a1.056 1.056 0 0 0-2.11 0v14.188H53.574l.923-.921a1.057 1.057 0 0 0 0-1.493 1.057 1.057 0 0 0-1.492 0ZM28.218 54.055a5.294 5.294 0 0 0-5.288-5.288 5.293 5.293 0 0 0-5.287 5.288 5.293 5.293 0 0 0 5.287 5.287 5.294 5.294 0 0 0 5.288-5.287Zm.932 7.79 1.57-1.571-.885-1.368a1.607 1.607 0 0 1-.098-1.578c.121-.254.23-.514.321-.776a1.605 1.605 0 0 1 1.187-1.045l1.59-.341v-2.222l-1.59-.341a1.606 1.606 0 0 1-1.187-1.046 7.573 7.573 0 0 0-.321-.775 1.607 1.607 0 0 1 .098-1.579l.884-1.367-1.57-1.57-1.367.884a1.61 1.61 0 0 1-1.58.098 7.505 7.505 0 0 0-.776-.323 1.598 1.598 0 0 1-1.044-1.185l-.342-1.592h-2.22l-.341 1.592c-.12.556-.512.999-1.046 1.185a7.44 7.44 0 0 0-.776.323 1.607 1.607 0 0 1-1.578-.098l-1.37-.884-1.57 1.57.885 1.367c.31.478.346 1.067.098 1.579-.12.253-.23.513-.321.775a1.606 1.606 0 0 1-1.185 1.046l-1.593.342v2.22l1.593.342c.554.12.997.51 1.185 1.044.091.263.2.523.321.777a1.598 1.598 0 0 1-.098 1.578l-.884 1.368 1.57 1.571 1.369-.886a1.602 1.602 0 0 1 1.578-.096 8.1 8.1 0 0 0 .776.321c.534.187.926.63 1.046 1.185l.34 1.593h2.22l.343-1.593c.12-.555.51-.998 1.044-1.185.264-.093.524-.2.777-.321.51-.248 1.1-.211 1.579.096l1.368.886Zm-6.218-4.612a3.182 3.182 0 0 0 3.178-3.178 3.182 3.182 0 0 0-3.178-3.178 3.182 3.182 0 0 0-3.178 3.178 3.18 3.18 0 0 0 3.178 3.178ZM8.274 47.589c-4.439 7.603-2.289 17.243 5.9 26.45.173.192.268.441.268.7v10.594l17.71-.253v-8.73a1.055 1.055 0 0 1 1.236-1.039l5.658.985c.54.095 1.014-.02 1.452-.346.438-.327.68-.75.744-1.294l.873-7.53a1.06 1.06 0 0 1 .398-.709c.221-.172.502-.25.782-.216l1.39.174a1.694 1.694 0 0 0 1.66-.75c.398-.588.443-1.247.117-1.764l-4.57-7.24a1.058 1.058 0 0 1-.157-.455c-.984-9.601-5.784-16.024-13.169-17.622a16.919 16.919 0 0 0-3.574-.377c-6.6 0-13.359 3.67-16.718 9.422Z" fill="#00AAA3"/></svg>