<svg width="74" height="74" fill="none" xmlns="http://www.w3.org/2000/svg"><g clip-path="url(#a)"><path d="M60.213 9.87c0 .638-.517 1.155-1.155 1.155H55.1a1.155 1.155 0 1 1 0-2.31h3.958c.638 0 1.155.517 1.155 1.155ZM72.77 71.762c0 .638-.517 1.156-1.155 1.156H2.237a1.155 1.155 0 0 1 0-2.311h5.125a2.583 2.583 0 0 1-.011-.238v-3.314a5.982 5.982 0 0 1-5.552-5.961v-4.839c0-1.014.38-2.242 1.697-3.44a3.783 3.783 0 0 1-2.414-3.52 3.786 3.786 0 0 1 3.782-3.782h3.823l.48-3.575c.61-4.535 8.582-6.144 15.223-6.145h.005c6.555 0 14.425 1.609 15.037 6.145l.48 3.575h3.824a3.784 3.784 0 0 1 3.777 3.781c0 1.584-.98 2.943-2.366 3.503 1.05.973 1.653 2.119 1.653 3.458v4.839a5.984 5.984 0 0 1-5.551 5.96v3.315c0 .08-.005.16-.012.238h7.526V35.754a9.964 9.964 0 0 1-1.77-5.678c0-4.876 3.5-8.948 8.12-9.841l4.483-4.482h-9.412a1.155 1.155 0 0 1-1.155-1.155v-.91H36.333a8.7 8.7 0 0 1-3.02 3.408v5.958a2.33 2.33 0 0 1-.695 1.681l-1.692 1.692c-.216.217-.51.338-.817.338h-.504v3.22a1.155 1.155 0 0 1-2.31 0v-3.22h-.504c-.306 0-.6-.12-.816-.337l-1.696-1.692a2.331 2.331 0 0 1-.696-1.682v-6.117l.001-.03A8.635 8.635 0 0 1 19.95 9.87c0-4.765 3.874-8.64 8.636-8.64 3.394 0 6.336 1.967 7.748 4.821H49.03v-.905c0-.638.517-1.155 1.155-1.155h17.744c.638 0 1.156.517 1.156 1.155v7.6a6.666 6.666 0 0 1 1.733 1.247c2.608 2.607 2.608 6.852.002 9.463l-4.095 4.092c.21.808.323 1.655.323 2.528a9.967 9.967 0 0 1-1.77 5.68v34.851h6.338c.639 0 1.156.517 1.156 1.156ZM34.916 9.87c0-3.49-2.84-6.33-6.33-6.33a6.333 6.333 0 0 0-6.326 6.33c0 3.49 2.838 6.33 6.326 6.33 3.488 0 6.33-2.84 6.33-6.33Zm-24.73 53.17a3.81 3.81 0 0 0 3.807-3.806 3.81 3.81 0 0 0-3.806-3.806 3.81 3.81 0 0 0-3.806 3.806 3.81 3.81 0 0 0 3.806 3.806Zm18.952-7.564a21.81 21.81 0 0 0-12.518 0 1.155 1.155 0 1 0 .661 2.214 19.507 19.507 0 0 1 11.195 0 1.157 1.157 0 0 0 1.438-.776 1.155 1.155 0 0 0-.776-1.438Zm-.001 4.408a21.88 21.88 0 0 0-12.516 0 1.155 1.155 0 0 0 .66 2.215 19.574 19.574 0 0 1 11.197 0 1.156 1.156 0 0 0 .659-2.215Zm10.175-.65a3.81 3.81 0 0 0-3.806-3.806 3.814 3.814 0 0 0-3.81 3.806 3.812 3.812 0 0 0 3.81 3.806 3.81 3.81 0 0 0 3.806-3.806ZM10.463 49.64c3.87-.97 8.781-1.501 13.996-1.501 4.623 0 9.593.428 13.67 1.44l-.372-2.756-.005-.044-.61-4.533c-.319-2.361-5.798-4.142-12.747-4.142h-.005c-6.94 0-12.62 1.82-12.932 4.142l-.995 7.394Zm4.434 17.431H9.661v3.298a.24.24 0 0 0 .238.238h4.765a.239.239 0 0 0 .233-.238v-3.298ZM31.4 70.607a2.59 2.59 0 0 1-.012-.238v-3.298h-14.18v3.298c0 .08-.004.16-.011.238H31.4Zm7.539-3.536h-5.24v3.298a.24.24 0 0 0 .238.238H38.7a.24.24 0 0 0 .238-.238v-3.298Zm23.044-53.629a6.688 6.688 0 0 1 4.79-1.367V6.3H51.34v7.141h10.643Zm.985 33.267h-2.754v18.78h2.754V46.71Zm1.77-16.633c0-4.254-3.461-7.715-7.715-7.715s-7.719 3.461-7.719 7.715 3.463 7.714 7.719 7.714 7.715-3.46 7.715-7.714Zm-7.715-4.81a4.815 4.815 0 0 0-4.81 4.81 4.815 4.815 0 0 0 4.81 4.81 4.812 4.812 0 0 0 4.806-4.81 4.813 4.813 0 0 0-4.806-4.81Z" fill="#00AAA3"/></g><defs><clipPath id="a"><path fill="#fff" d="M0 0h74v73.165H0z"/></clipPath></defs></svg>