<svg width="83" height="83" fill="none" xmlns="http://www.w3.org/2000/svg"><path d="M30.931 30.901a1.22 1.22 0 0 0 0-1.726c-5.83-5.829-5.83-15.314 0-21.143A14.85 14.85 0 0 1 41.503 3.66a14.85 14.85 0 0 1 10.571 4.372c5.83 5.829 5.83 15.314 0 21.143a1.22 1.22 0 1 0 1.726 1.726c6.78-6.781 6.78-17.814 0-24.595a17.275 17.275 0 0 0-12.297-5.087c-4.65 0-9.018 1.807-12.298 5.087-6.781 6.781-6.781 17.814 0 24.595a1.22 1.22 0 0 0 1.726 0Z" fill="#00AAA3"/><path d="M47.5 26.328a1.217 1.217 0 0 0 1.726 0c4.259-4.26 4.259-11.19 0-15.449s-11.188-4.26-15.448 0c-4.259 4.26-4.259 11.19 0 15.449a1.22 1.22 0 1 0 1.726-1.726c-3.307-3.308-3.307-8.689 0-11.997 1.6-1.6 3.73-2.48 5.998-2.48 2.269 0 4.398.88 5.998 2.48 3.307 3.308 3.307 8.689 0 11.997a1.22 1.22 0 0 0 0 1.726Z" fill="#00AAA3"/><path d="m63.63 71.418-19.432-49.3c1.062-.817 1.758-2.074 1.758-3.514a4.464 4.464 0 0 0-4.456-4.456 4.464 4.464 0 0 0-4.455 4.456c0 1.44.696 2.697 1.758 3.515l-19.432 49.3a1.225 1.225 0 0 0 1.135 1.672c.489 0 .953-.293 1.136-.781l2.734-6.921 15.904 10.68v4.492c0 .671.55 1.22 1.22 1.22.672 0 1.221-.549 1.221-1.22v-4.492l15.904-10.68 2.734 6.92c.183.489.647.782 1.136.782a1.225 1.225 0 0 0 1.135-1.672Zm-23.35 1.71L25.29 63.07l2.002-5.09 12.987 7.885v7.262Zm0-20.19-9.155-4.674 2.051-5.224 7.104 2.514v7.385Zm0-17.466-3.381-1.867 3.38-8.581v10.448Zm2.441-10.448 3.381 8.58-3.38 1.868V25.024Zm0 20.53 7.104-2.514 2.05 5.224-9.154 4.675v-7.385Zm0 27.573v-7.262l12.987-7.885 2.002 5.09-14.99 10.057Z" fill="#00AAA3"/></svg>