<svg width="69" height="69" fill="none" xmlns="http://www.w3.org/2000/svg"><g clip-path="url(#a)" fill="#00AAA3"><path d="M55.609 31.266H42.52a1.08 1.08 0 0 0-1.078 1.035c0 .053-.065 1.293-.215 3.277H56.87c-.075-1.132-.14-2.232-.183-3.277a1.073 1.073 0 0 0-1.078-1.035ZM40.02 46.672c2.123 9.153 5.174 16.722 8.98 18.016h14.383c-3.407-4.928-5.488-17.003-6.35-26.954h-15.98c-.215 2.502-.55 5.65-1.035 8.938Zm27.902 20.172H1.078a1.078 1.078 0 1 0 0 2.156h66.844a1.078 1.078 0 0 0 0-2.156ZM21.067 19.406h9.616a1.08 1.08 0 0 0 .796-.35 7.344 7.344 0 0 0 1.636-2.924 7.528 7.528 0 0 0 3.441-1.253 7.578 7.578 0 0 0 5.49 2.371 7.497 7.497 0 0 0 5.192-2.07 8.623 8.623 0 1 0-1.193-11.87 7.668 7.668 0 0 0-8.21.139 7.543 7.543 0 0 0-12.732 3.059 7.536 7.536 0 0 0-4.836 12.544 1.08 1.08 0 0 0 .8.354Zm5.887 28.032V43.57l-4.944 4.945h1.71a1.078 1.078 0 0 1 1.078 1.078v3.866l4.944-4.944h-1.71a1.078 1.078 0 0 1-1.078-1.078ZM34.5 22.587a1.086 1.086 0 0 0-1.077-1.024H18.329a1.086 1.086 0 0 0-1.078 1.024c-.054.97-.119 2.08-.216 3.288h17.681a131.297 131.297 0 0 1-.215-3.288Z"/><path d="M34.899 28.031H16.851c-1.089 11.6-4.14 30.166-10.404 36.657h38.856c-6.264-6.49-9.315-25.056-10.404-36.657Zm-1.79 20.172-8.625 8.625a1.09 1.09 0 0 1-.765.313.905.905 0 0 1-.41-.087 1.065 1.065 0 0 1-.668-.992v-5.39h-3.235a1.065 1.065 0 0 1-.991-.669 1.08 1.08 0 0 1 .226-1.175l8.625-8.625a1.08 1.08 0 0 1 1.175-.226 1.064 1.064 0 0 1 .669.992v5.39h3.234a1.064 1.064 0 0 1 .992.669 1.08 1.08 0 0 1-.227 1.175Z"/></g><defs><clipPath id="a"><path fill="#fff" d="M0 0h69v69H0z"/></clipPath></defs></svg>