<svg width="75" height="75" fill="none" xmlns="http://www.w3.org/2000/svg"><path fill-rule="evenodd" clip-rule="evenodd" d="M19.44 14.148c4.02 1.003 7.007 4.643 7.007 8.967 0 .324-.018.648-.052.967a.877.877 0 1 1-1.747-.182 7.89 7.89 0 0 0 .041-.785c0-4.126-3.359-7.485-7.487-7.485s-7.485 3.359-7.485 7.485c0 4.128 3.357 7.487 7.485 7.487H57.05c4.127 0 7.489-3.359 7.489-7.487 0-4.126-3.362-7.485-7.489-7.485-.266 0-.53.014-.794.042a9.27 9.27 0 0 1-1.96 7.18 9.284 9.284 0 0 1-5.159 3.202.878.878 0 0 1-.384-1.715c3.387-.758 5.847-3.83 5.847-7.307 0-4.127-3.36-7.486-7.487-7.486-.976 0-1.944.195-2.84.561a14.044 14.044 0 0 1 1.34 4.541.878.878 0 1 1-1.746.207C43.133 8.648 37.859 3.97 31.6 3.97c-6.022 0-11.124 4.327-12.16 10.178Zm16.807 23.087h-17.94a6.689 6.689 0 0 0-6.681 6.681v5.802a.88.88 0 0 0 1.757 0v-5.802a4.93 4.93 0 0 1 4.924-4.923h17.94v10.725a.88.88 0 0 0 1.757 0V38.993h17.942a4.928 4.928 0 0 1 4.922 4.923v5.802a.877.877 0 1 0 1.756 0v-5.802c0-3.684-2.996-6.681-6.678-6.681H38.004V32.36h-1.757v4.875Zm20.633 17.48a2.815 2.815 0 0 0-2.812 2.812v.46H51.6a.879.879 0 1 0 0 1.758h2.468v1.44H51.6a.879.879 0 1 0 0 1.758h2.468v1.441H51.6a.879.879 0 1 0 0 1.758h2.468v.46a2.815 2.815 0 0 0 2.812 2.813h.758v2.468a.879.879 0 1 0 1.758 0v-2.468h1.44v2.468a.878.878 0 1 0 1.757 0v-2.468h1.442v2.468a.88.88 0 0 0 1.758 0v-2.468h.754a2.816 2.816 0 0 0 2.817-2.813v-.46h2.465a.88.88 0 0 0 0-1.758h-2.465v-1.441h2.465a.879.879 0 1 0 0-1.758h-2.465v-1.44h2.465a.88.88 0 0 0 0-1.758h-2.465v-.46a2.817 2.817 0 0 0-2.817-2.812h-.754v-2.468a.88.88 0 0 0-1.758 0v2.468h-1.442v-2.468a.878.878 0 1 0-1.756 0v2.468h-1.442v-2.468a.879.879 0 1 0-1.757 0v2.468h-.758Zm2.445 3.272h4.783c1.01 0 1.831.823 1.831 1.834v4.486c0 1.012-.82 1.835-1.831 1.835h-4.783a1.837 1.837 0 0 1-1.834-1.835V59.82c0-1.01.824-1.834 1.834-1.834Zm0 1.758h4.783c.035 0 .078.037.078.076v4.486c0 .04-.043.077-.078.077h-4.783a.08.08 0 0 1-.076-.077V59.82a.08.08 0 0 1 .076-.076Zm-30.32 6.722h16.243v-11.47c0-.868-.707-1.574-1.576-1.574H30.58c-.87 0-1.577.706-1.577 1.575v11.47Zm-1.562 1.758v1.39a1.39 1.39 0 0 0 1.388 1.389H45.42a1.39 1.39 0 0 0 1.39-1.389v-1.39H27.444Zm10.933 1.389a.88.88 0 0 1 .88-.88h1.3a.88.88 0 0 1 0 1.759h-1.3a.879.879 0 0 1-.88-.88Zm4.257 0a.88.88 0 0 1 .88-.88h1.3a.88.88 0 0 1 0 1.759h-1.3a.879.879 0 0 1-.88-.88Zm-22.02-3.1H4.395a.541.541 0 0 0-.533.535v3.42c0 .29.245.535.533.535h16.216c.29 0 .535-.245.535-.535v-3.42a.542.542 0 0 0-.535-.535Zm-3.236 3.161a.88.88 0 0 1 0-1.757h1.563a.88.88 0 0 1 0 1.757h-1.564Zm-2.84-.953a.88.88 0 0 1-.878.879H6.07a.88.88 0 0 1 0-1.758h7.588a.88.88 0 0 1 .879.879Zm6.075-8.457H4.396a.541.541 0 0 0-.533.535v3.422c0 .29.245.534.533.534h16.216c.29 0 .535-.244.535-.534V60.8a.542.542 0 0 0-.535-.535Zm-4.114 2.282a.88.88 0 0 1 .878-.878h1.563a.88.88 0 0 1 0 1.757h-1.563a.879.879 0 0 1-.878-.879ZM6.07 61.595h7.588a.879.879 0 1 1 0 1.758H6.07a.88.88 0 0 1 0-1.758Zm14.541-7.577H4.396a.541.541 0 0 0-.533.534v3.42c0 .29.245.535.533.535h16.216c.29 0 .535-.244.535-.534v-3.42a.542.542 0 0 0-.535-.535Zm-3.235 1.403h1.563a.88.88 0 0 1 0 1.758h-1.564a.88.88 0 0 1 0-1.758ZM6.07 55.346h7.588a.88.88 0 0 1 0 1.758H6.07a.88.88 0 0 1 0-1.758Zm40.163-34.511a.88.88 0 0 1 .879-.88 2.926 2.926 0 0 0 2.924-2.923.88.88 0 0 1 1.757 0 4.685 4.685 0 0 1-4.681 4.681.879.879 0 0 1-.88-.879Zm-24.503 3.47a.88.88 0 0 1-1.7-.446 2.934 2.934 0 0 0-1.605-3.4.879.879 0 1 1 .735-1.596 4.7 4.7 0 0 1 2.57 5.442ZM31.6 7.416a.879.879 0 1 1 0-1.757c4.09 0 7.871 2.387 9.63 6.083A.877.877 0 0 1 40.44 13a.881.881 0 0 1-.794-.501A8.955 8.955 0 0 0 31.6 7.417Z" fill="#00AAA3"/></svg>