<svg width="77" height="77" fill="none" xmlns="http://www.w3.org/2000/svg"><g clip-path="url(#a)"><path d="M74.52 73.27h-4.598l-3.897-38.008a1.201 1.201 0 0 0 1.137-1.2v-5.537c0-.664-.539-1.202-1.203-1.202H51.665c-.664 0-1.202.538-1.202 1.202v5.538c0 .642.504 1.165 1.137 1.199L47.707 73.27h-6.644V58.09c.295-.781.535-1.588.72-2.414h1.165a3.978 3.978 0 0 0 3.973-3.973 3.978 3.978 0 0 0-3.973-3.973h-1.164c-1.22-5.455-4.97-10.131-10.048-12.512v-4.762c0-.664-.538-1.202-1.202-1.202H17.518c-.664 0-1.202.538-1.202 1.202v4.762c-5.076 2.38-8.828 7.056-10.052 12.512H5.1a3.978 3.978 0 0 0-3.973 3.973A3.978 3.978 0 0 0 5.1 55.676h1.165c.185.826.425 1.633.72 2.414v15.18H2.328a1.202 1.202 0 1 0 0 2.404h72.19a1.202 1.202 0 1 0 0-2.404Zm-55.8-41.611h10.611v3.137h-10.61v-3.137ZM5.1 53.272a1.57 1.57 0 0 1-1.569-1.569 1.57 1.57 0 0 1 1.57-1.569h37.846a1.57 1.57 0 0 1 1.569 1.57 1.57 1.57 0 0 1-1.569 1.568H5.1Zm8.76 19.998H9.39V62.495a18.416 18.416 0 0 0 4.472 4.29v6.485Zm5.525 0h-3.12v-5.11a17.96 17.96 0 0 0 3.12 1.14v3.97Zm6.872-4.923v4.923H21.79V62.071a2.236 2.236 0 0 1 2.234-2.234 2.236 2.236 0 0 1 2.233 2.234v6.276Zm5.525 4.923h-3.12V69.3a17.965 17.965 0 0 0 3.12-1.14v5.11Zm6.877 0h-4.472v-6.485a18.42 18.42 0 0 0 4.472-4.29V73.27Zm14.208-43.542h11.89v3.133h-11.89v-3.133Zm3.555-20.762A7.632 7.632 0 0 0 52.8 6.937a7.522 7.522 0 0 0-2.028-3.62 7.568 7.568 0 0 0-5.391-2.236 7.578 7.578 0 0 0-5.394 2.235 7.59 7.59 0 0 0-2.042 3.697 5.694 5.694 0 0 0-4.668 1.628 5.65 5.65 0 0 0-1.666 4.024c0 1.518.593 2.944 1.666 4.015a5.65 5.65 0 0 0 4.021 1.666h.004c.745 0 1.47-.143 2.14-.416a7.629 7.629 0 0 0 2.054 3.746c3.48 3.48 8.243 1.691 11.764.06.204.301.438.585.701.848a5.65 5.65 0 0 0 4.021 1.667h.004A5.638 5.638 0 0 0 62 22.584a5.65 5.65 0 0 0 1.667-4.024 5.637 5.637 0 0 0-1.665-4.013 5.634 5.634 0 0 0-3.489-1.646 7.568 7.568 0 0 0-2.091-3.935Zm-2.998 7.99a1.203 1.203 0 0 1-2.247-.854 1.465 1.465 0 0 0-1.14-1.971 1.202 1.202 0 1 1 .383-2.374 3.855 3.855 0 0 1 2.738 1.887 3.858 3.858 0 0 1 .266 3.313Zm-7.307-1.355a1.203 1.203 0 0 1-2.247-.855 1.466 1.466 0 0 0-1.14-1.971 1.202 1.202 0 0 1 .383-2.373 3.855 3.855 0 0 1 2.739 1.886 3.859 3.859 0 0 1 .265 3.313ZM7.18-22.947h27.667v5.38c0 .664.539 1.202 1.203 1.202h37.442c.664 0 1.202-.538 1.202-1.202v-10.402c0-6.657-6.121-12.073-13.646-12.073h-.989a.475.475 0 0 1-.472-.425c3.466-1.763 5.848-5.361 5.848-9.508v-.627a3.581 3.581 0 0 0 3.15-3.55 3.586 3.586 0 0 0-3.15-3.555v-1.33c0-2.33-.739-4.544-2.136-6.403a10.783 10.783 0 0 0-4.557-3.495v-.658a3.976 3.976 0 0 0-3.973-3.969c-.569 0-1.11.121-1.599.337v-7.4a5.034 5.034 0 0 0-5.03-5.027h-7.18v-.823c0-.664-.538-1.202-1.202-1.202H36.36v-2.08c0-.664-.538-1.203-1.202-1.203H20.166c-.664 0-1.202.539-1.202 1.203v2.08h-3.398c-.664 0-1.202.538-1.202 1.202v.823H7.18a5.032 5.032 0 0 0-5.026 5.026v52.649a5.034 5.034 0 0 0 5.026 5.03ZM36.493-38.37h-8.726a1.202 1.202 0 0 1 0-2.405h8.726a1.202 1.202 0 0 1 0 2.405Zm-3.986 4.817c0 .664-.538 1.202-1.202 1.202h-3.538a1.202 1.202 0 1 1 0-2.405h3.538c.664 0 1.202.539 1.202 1.203Zm-5.943-15.659c0-.663.539-1.202 1.203-1.202h8.47a1.202 1.202 0 1 1 0 2.405h-8.47a1.202 1.202 0 0 1-1.203-1.203Zm11.656-4.817H27.767a1.202 1.202 0 0 1 0-2.404H38.22a1.202 1.202 0 1 1 0 2.404Zm-11.656-10.84c0-.665.539-1.203 1.203-1.203h10.299a1.202 1.202 0 1 1 0 2.405h-10.3a1.202 1.202 0 0 1-1.202-1.203ZM51.45-32.295 48.273-36.2l.533-.861 4.151 3.271-1.508 1.497Zm-3.225-7.745v-1.527c.538.42 1.117.788 1.73 1.1a.475.475 0 0 1-.472.424h-.99c-.09 0-.179.002-.268.003Zm2.993 1.816a2.89 2.89 0 0 0 1.003-1.4 10.65 10.65 0 0 0 5.1 0 2.885 2.885 0 0 0 1.002 1.4l-3.554 2.798-3.551-2.798Zm9.517 1.16.533.862-3.176 3.908-1.511-1.498 4.154-3.272Zm2.295-12.912c0 4.553-3.706 8.258-8.261 8.258a8.211 8.211 0 0 1-3.133-.62l-.023-.008c-2.992-1.242-5.102-4.194-5.102-7.63v-.6h16.52v.6Zm-9.826-18.102v-1.516a1.566 1.566 0 0 1 3.133 0v4.399a1.567 1.567 0 1 1-3.133 0v-2.883ZM65.008-55.33c.647 0 1.173.528 1.173 1.176 0 .636-.537 1.173-1.172 1.173H44.532a1.188 1.188 0 0 1-1.172-1.173c0-.648.526-1.176 1.172-1.176h20.475ZM40.962-83.248h7.179a2.627 2.627 0 0 1 2.626 2.622v11.702c-.925.372-1.777.863-2.541 1.452v-12.033c0-.664-.538-1.202-1.202-1.202H40.96v-2.54Zm-.49 11.16a1.202 1.202 0 0 1 0 2.405H27.767a1.202 1.202 0 0 1 0-2.404H40.47ZM16.768-85.272h3.398c.664 0 1.202-.538 1.202-1.202v-2.08h12.589v2.08c0 .664.538 1.202 1.202 1.202h3.398v5.329h-21.79v-5.329ZM15.7-69.757l1.038 1.038 4.245-4.244a1.202 1.202 0 1 1 1.7 1.7l-5.095 5.095a1.198 1.198 0 0 1-1.7 0L14-68.058a1.202 1.202 0 1 1 1.7-1.7Zm6.983 14.148-5.094 5.098a1.202 1.202 0 0 1-1.7 0l-1.89-1.888a1.202 1.202 0 1 1 1.701-1.7l1.038 1.038 4.244-4.248a1.202 1.202 0 1 1 1.701 1.7Zm0 15.658-5.094 5.099a1.202 1.202 0 0 1-1.7 0l-1.89-1.889a1.202 1.202 0 1 1 1.701-1.7l1.038 1.038 4.244-4.248a1.202 1.202 0 0 1 1.701 1.7ZM4.559-80.626a2.625 2.625 0 0 1 2.622-2.622h7.183v2.541H8.297c-.664 0-1.202.538-1.202 1.203v50.41c0 .664.538 1.202 1.202 1.202h26.55v2.54H7.18a2.627 2.627 0 0 1-2.621-2.625v-52.649Z" fill="#00AAA3"/></g><defs><clipPath id="a"><path fill="#fff" d="M0 0h77v77H0z"/></clipPath></defs></svg>