<svg width="73" height="73" fill="none" xmlns="http://www.w3.org/2000/svg"><path d="M63.875 4.563H9.125a6.851 6.851 0 0 0-6.844 6.843V53.61c0 2.973 1.909 5.502 4.563 6.445-.192 2.649 1.884 4.974 4.562 4.962h1.14v1.14a2.284 2.284 0 0 0 2.282 2.281h9.125a2.284 2.284 0 0 0 2.281-2.28v-1.141h20.532v1.14a2.284 2.284 0 0 0 2.28 2.281h9.126a2.284 2.284 0 0 0 2.281-2.28v-1.141h1.14c2.679.012 4.755-2.313 4.563-4.962 2.654-.943 4.563-3.472 4.563-6.445V11.406a6.851 6.851 0 0 0-6.844-6.844Zm-2.281 58.171H11.406a2.284 2.284 0 0 1-2.281-2.28h54.75a2.284 2.284 0 0 1-2.281 2.28Zm6.843-9.125a4.567 4.567 0 0 1-4.562 4.563H9.125a4.567 4.567 0 0 1-4.563-4.563V11.406a4.567 4.567 0 0 1 4.563-4.562h7.984a3.426 3.426 0 0 0 3.422 3.422H52.47a3.426 3.426 0 0 0 3.422-3.422h7.984a4.567 4.567 0 0 1 4.563 4.562V53.61Z" fill="#00AAA3"/><path d="M62.734 11.406H10.266a3.426 3.426 0 0 0-3.422 3.422v30.797a3.426 3.426 0 0 0 3.422 3.422h52.468a3.426 3.426 0 0 0 3.422-3.422V14.828a3.426 3.426 0 0 0-3.422-3.422Zm-3.422 21.672H44.484a1.14 1.14 0 0 1-1.081-.78l-1.297-3.89-3.406 8.515c-.372 1.038-2.014.887-2.18-.212l-2.236-11.92-2.362 14.177c-.15 1.118-1.815 1.292-2.19.223l-4.695-12.21-2.317 5.405a1.14 1.14 0 0 1-1.048.692h-9.125a1.14 1.14 0 1 1 0-2.281h8.373l3.126-7.293c.386-.905 1.785-.903 2.113.04l4.2 10.923 2.735-16.404c.19-1.236 2.03-1.258 2.245-.023l2.7 14.393 3.105-7.762c.36-.958 1.85-.93 2.14.062l2.022 6.064h14.007c1.498.024 1.5 2.256 0 2.281Zm-10.264 17.11c-4.512.118-4.511 6.726 0 6.843 4.512-.118 4.511-6.726 0-6.843Zm10.265 0c-4.512.118-4.51 6.726 0 6.843 4.513-.118 4.512-6.726 0-6.843Zm-45.625 0c-4.512.118-4.51 6.726 0 6.843 4.513-.118 4.512-6.726 0-6.843Z" fill="#00AAA3"/></svg>