<svg width="71" height="71" fill="none" xmlns="http://www.w3.org/2000/svg"><g clip-path="url(#a)" fill="#00AAA3"><path d="M58.987 25.69a5.49 5.49 0 0 0-4.893-2.89l-12.32.048v14.694h23.559L58.987 25.69ZM16.39 43.388c9.052 0 16.39-7.338 16.39-16.39 0-9.051-7.338-16.389-16.39-16.389S0 17.947 0 27c.012 9.046 7.343 16.377 16.39 16.39ZM8.962 17.681a10.495 10.495 0 0 1 17.923 7.412 10.537 10.537 0 0 1-3.1 7.444l-6.49 6.492a1.327 1.327 0 0 1-1.842 0l-6.491-6.492a10.371 10.371 0 0 1-1.793-2.422.016.016 0 0 0-.016-.016A10.469 10.469 0 0 1 8.962 17.68Zm2.163 32.392a5.264 5.264 0 1 0 0 10.527 5.264 5.264 0 0 0 0-10.527Z"/><path d="M20.054 24.817a3.681 3.681 0 1 1-7.362.001 3.681 3.681 0 0 1 7.362 0Zm41.694 25.256a5.264 5.264 0 1 0 0 10.527 5.264 5.264 0 0 0 0-10.527ZM16.39 45.907a18.905 18.905 0 0 1-13.613-5.781H.436v13.725h2.987c.678-3.552 3.875-6.394 7.702-6.394s7.04 2.842 7.719 6.394h20.345V40.126h-9.187a18.905 18.905 0 0 1-13.613 5.78Z"/><path d="m10.786 30.696 5.571 5.571 5.57-5.57a7.918 7.918 0 0 0 2.342-5.62 7.777 7.777 0 0 0-2.309-5.571 7.912 7.912 0 0 0-12.563 9.35c.382.67.85 1.289 1.39 1.84Zm5.587-12.127a6.258 6.258 0 1 1-6.265 6.25 6.272 6.272 0 0 1 6.265-6.25Zm52.464 21.557H41.773v13.725h12.272c.678-3.552 3.876-6.394 7.703-6.394 3.827 0 7.024 2.842 7.702 6.394H71V42.306a2.21 2.21 0 0 0-2.163-2.18Z"/></g><defs><clipPath id="a"><path fill="#fff" d="M0 0h71v71H0z"/></clipPath></defs></svg>