<svg width="84" height="84" fill="none" xmlns="http://www.w3.org/2000/svg"><path d="M47.662 74.784A8.282 8.282 0 0 1 42.004 77a8.282 8.282 0 0 1-5.658-2.216c-13.9-13.093-32.528-27.72-23.444-48.955C17.814 14.347 29.604 7 42.004 7c12.4 0 24.19 7.347 29.102 18.829 9.073 21.208-9.51 35.907-23.444 48.955Z" fill="#00A7A1" stroke="#fff" stroke-width="1.5"/><path d="M54.25 38.5c0 6.766-5.484 12.25-12.25 12.25S29.75 45.266 29.75 38.5c0-6.765 5.484-12.25 12.25-12.25s12.25 5.485 12.25 12.25Z" stroke="#fff" stroke-width="1.5"/></svg>