<svg width="63" height="63" fill="none" xmlns="http://www.w3.org/2000/svg"><g clip-path="url(#a)" fill="#00AAA3"><path d="M31.5 12.797c-10.367 0-18.79 8.436-18.79 18.789 0 10.352 8.437 18.788 18.79 18.788 10.352 0 18.788-8.436 18.788-18.788 0-10.353-8.422-18.789-18.788-18.789Zm9.422 14.285L29.583 37.777c-.21.205-.492.319-.786.315a1.114 1.114 0 0 1-.815-.344l-5.934-6.09a1.143 1.143 0 0 1 1.63-1.602l5.148 5.29 10.523-9.923a1.143 1.143 0 1 1 1.573 1.659Z"/><path d="M58.482 38.435 63 31.586l-4.518-6.85a1.156 1.156 0 0 1-.186-.686l.457-8.207-7.306-3.703a1.129 1.129 0 0 1-.5-.5l-3.69-7.308-8.207.458a1.152 1.152 0 0 1-.686-.186L31.5.086l-6.85 4.518a1.152 1.152 0 0 1-.685.186l-8.208-.458-3.703 7.307a1.129 1.129 0 0 1-.5.5l-7.307 3.69.457 8.207c.012.243-.053.483-.185.687L0 31.586l4.519 6.849c.132.204.197.443.185.686l-.457 8.207 7.306 3.69c.217.109.392.284.5.5l3.69 7.307 8.207-.458h.057c.223.003.441.067.63.186l6.849 4.519 6.849-4.519a1.16 1.16 0 0 1 .686-.186l8.208.458 3.689-7.307a1.13 1.13 0 0 1 .5-.5l7.307-3.69-.458-8.207c.012-.243.086-.48.215-.686ZM31.5 52.662c-11.625 0-21.076-9.452-21.076-21.076 0-11.625 9.451-21.077 21.076-21.077s21.076 9.452 21.076 21.077c0 11.624-9.451 21.076-21.076 21.076Z"/></g><defs><clipPath id="a"><path fill="#fff" d="M0 0h63v63H0z"/></clipPath></defs></svg>