<svg width="64" height="64" fill="none" xmlns="http://www.w3.org/2000/svg"><g clip-path="url(#a)"><path d="M56.45 15.345 32.706.185a1.15 1.15 0 0 0-1.254 0L7.694 15.346a1.17 1.17 0 0 0-.539.977V29.47a33.215 33.215 0 0 0 13.964 27.024l10.276 7.288c.4.292.942.292 1.341 0l10.276-7.288A33.19 33.19 0 0 0 56.99 29.47V16.322a1.17 1.17 0 0 0-.54-.977ZM41.67 27.4 30.112 38.302c-.214.21-.503.325-.802.321a1.134 1.134 0 0 1-.83-.35l-6.05-6.209a1.164 1.164 0 1 1 1.662-1.633l5.247 5.393L40.067 25.71a1.164 1.164 0 1 1 1.603 1.69Z" fill="#00AAA3"/></g><defs><clipPath id="a"><path fill="#fff" d="M0 0h64v64H0z"/></clipPath></defs></svg>