<svg width="63" height="63" fill="none" xmlns="http://www.w3.org/2000/svg"><path d="M52.34 22.796A4.871 4.871 0 0 0 48 20.23l-10.933.043v13.038h20.905l-5.63-10.516ZM14.543 38.5c8.032 0 14.543-6.512 14.543-14.544S22.575 9.414 14.543 9.414 0 15.924 0 23.956C.01 31.983 6.515 38.488 14.543 38.5ZM7.952 15.688a9.312 9.312 0 0 1 15.904 6.577 9.35 9.35 0 0 1-2.75 6.605l-5.76 5.76c-.457.44-1.178.44-1.634 0l-5.76-5.76a9.201 9.201 0 0 1-1.59-2.15.014.014 0 0 0-.015-.014A9.289 9.289 0 0 1 7.952 15.69Zm1.92 28.743a4.67 4.67 0 1 0 0 9.341 4.67 4.67 0 0 0 0-9.34Z" fill="#00AAA3"/><path d="M17.795 22.021a3.267 3.267 0 1 1-6.533 0 3.267 3.267 0 0 1 6.533 0Zm36.995 22.41a4.67 4.67 0 1 0 0 9.341 4.67 4.67 0 0 0 0-9.34Zm-40.247-3.697a16.775 16.775 0 0 1-12.079-5.13H.387v12.18h2.65c.602-3.153 3.44-5.674 6.835-5.674 3.396 0 6.247 2.521 6.849 5.673h18.053V35.605H26.62a16.775 16.775 0 0 1-12.078 5.129Z" fill="#00AAA3"/><path d="m9.571 27.238 4.943 4.943 4.944-4.943a7.026 7.026 0 0 0 2.077-4.987 6.9 6.9 0 0 0-2.049-4.943A7.02 7.02 0 0 0 8.34 25.604a8.01 8.01 0 0 0 1.232 1.634Zm4.957-10.761a5.553 5.553 0 1 1-5.558 5.545 5.565 5.565 0 0 1 5.558-5.545ZM61.08 35.605H37.066v12.178h10.89c.601-3.152 3.438-5.673 6.834-5.673 3.396 0 6.233 2.521 6.835 5.673H63V37.54a1.961 1.961 0 0 0-1.92-1.934Z" fill="#00AAA3"/></svg>