<svg width="53" height="53" fill="none" xmlns="http://www.w3.org/2000/svg"><g clip-path="url(#a)" fill="#00AAA3"><path d="M40.408 24.982h-2.86c-7.058.703-12.58 6.705-12.58 13.95 0 7.726 6.285 14.02 14.01 14.02 7.726 0 14.02-6.294 14.02-14.02 0-7.245-5.532-13.247-12.59-13.95Zm-.434 18.57a.938.938 0 0 1-1.875 0v-.774a.938.938 0 0 1 1.875 0v.773Zm0-3.752a.938.938 0 0 1-1.875 0v-5.463a.938.938 0 0 1 1.875 0V39.8ZM22.625 15.72h9.73v7.386h-9.73v-7.385Zm14.853 7.386c.492 0 .996-.07 1.512-.07s1.02.07 1.512.07h2.755v-7.385h-9.026v7.385h3.247Zm5.78-17.479a1.139 1.139 0 0 0-1.114-1.16h-2.989v4.185a.964.964 0 0 1-.938.973h-7.22a1.004 1.004 0 0 1-.986-.973V4.467H13.247v4.185a1.002 1.002 0 0 1-.973.973H5.053a.973.973 0 0 1-.95-.973V4.467H1.126A1.15 1.15 0 0 0 0 5.627v8.218h43.258V5.627Z"/><path d="M31.887.012h5.392v7.737h-5.392V.012Zm-25.908 0h5.392v7.737H5.98V.012Zm25.391 24.97h-8.745v7.386h1.899a15.858 15.858 0 0 1 6.847-7.386ZM0 15.72h9.027v7.386H0v-7.385Zm10.902 9.262h9.848v7.386h-9.848v-7.386Zm11.723 9.261v8.206h.856a15.918 15.918 0 0 1 .328-8.206h-1.184ZM0 24.982h9.027v7.386H0v-7.386Zm0 16.306a1.15 1.15 0 0 0 1.126 1.161h7.9v-8.206H0v7.045Zm10.902-7.045h9.848v8.206h-9.848v-8.206Zm0-18.523h9.848v7.386h-9.848v-7.385Z"/></g><defs><clipPath id="a"><path fill="#fff" d="M0 0h53v53H0z"/></clipPath></defs></svg>