<svg width="54" height="54" fill="none" xmlns="http://www.w3.org/2000/svg"><path d="M40.328 22.993c1.148 0 2.292.127 3.412.378v-7.615h-15v6.195a.904.904 0 0 1-.584.847l-12.252 4.81a.822.822 0 0 1-.332.068.92.92 0 0 1-.915-.916V15.756H0v27.195a2.378 2.378 0 0 0 2.37 2.347h23.99a15.49 15.49 0 0 1-1.546-6.767c-.011-8.565 6.95-15.538 15.515-15.538ZM17.863 41.405a.919.919 0 0 1-.916.916H4.237a.919.919 0 0 1-.916-.916v-7.099a.918.918 0 0 1 .916-.916h12.71c.505.001.914.41.916.916v7.1Zm8.897-27.481L24.88 1.787h-6.25l-1.98 12.137h10.11Zm16.534 0L38.919 3.207a2.282 2.282 0 0 0-2.152-1.42h-10.03l1.877 12.137h14.68Z" fill="#00AAA3"/><path d="m16.488 25.42 10.42-4.099v-5.565h-10.42v9.664Zm.275-23.633H7.007a2.283 2.283 0 0 0-2.153 1.42L.48 13.924h14.313l1.97-12.137ZM30.584 38.52c1.27 1.522 5.221 5.76 9.744 5.76 4.534 0 8.462-4.226 9.744-5.76-1.27-1.523-5.221-5.76-9.744-5.76-4.546 0-8.473 4.225-9.744 5.76Zm15.046 0a5.302 5.302 0 1 1-10.604 0 5.302 5.302 0 0 1 10.604 0Z" fill="#00AAA3"/><path d="M36.848 38.52a3.47 3.47 0 1 0 6.939 0 3.47 3.47 0 0 0-6.94 0ZM5.152 35.222H16.03v5.381H5.152v-5.381Z" fill="#00AAA3"/><path d="M40.316 24.825c-7.557 0-13.683 6.126-13.683 13.683 0 7.557 6.126 13.683 13.683 13.683 7.557 0 13.683-6.126 13.683-13.683.011-7.546-6.126-13.683-13.683-13.683ZM51.972 37.97c.24.318.24.758 0 1.076-.217.298-5.233 7.054-11.656 7.054-6.424 0-11.44-6.768-11.645-7.054a.894.894 0 0 1 0-1.076c.206-.286 5.221-7.054 11.645-7.054 6.423 0 11.439 6.768 11.656 7.054Z" fill="#00AAA3"/></svg>