<svg width="53" height="53" fill="none" xmlns="http://www.w3.org/2000/svg"><g clip-path="url(#a)" fill="#00AAA3"><path d="M35.04 17.202a2.12 2.12 0 1 0 0-4.24 2.12 2.12 0 0 0 0 4.24Zm.855 4.722h-1.747a4.182 4.182 0 0 0-4.168 4.156v.18h9.998v-.18a4.103 4.103 0 0 0-4.083-4.156Zm-20.838 8.685V15.78H1.397A1.357 1.357 0 0 0 0 17.166V40.57c0 .795.59 1.47 1.397 1.47H3.24a.955.955 0 0 1 .976.94v3.48l5.782-4.24a.949.949 0 0 1 .566-.168h20.465a1.513 1.513 0 0 0 1.494-1.47V33.97h-14.07a3.377 3.377 0 0 1-3.396-3.361Z"/><path d="M51.602 6.627H18.454c-.795 0-1.47.59-1.47 1.385v22.597c.01.8.668 1.443 1.47 1.433H41.7c.2.003.395.07.554.193l6.167 4.59v-3.807a1.01 1.01 0 0 1 1-.976h2.18A1.393 1.393 0 0 0 53 30.61V8.012a1.352 1.352 0 0 0-1.398-1.385Zm-16.562 4.42a4.047 4.047 0 1 1-4.047 4.047 4.056 4.056 0 0 1 4.047-4.047Zm6.878 16.129c0 .53-.373 1.012-.916 1.012h-11.96a1.03 1.03 0 0 1-.988-1.012V26.08a6.106 6.106 0 0 1 6.095-6.083h1.746c3.349 0 6.023 2.746 6.023 6.083v1.096Z"/></g><defs><clipPath id="a"><path fill="#fff" d="M0 0h53v53H0z"/></clipPath></defs></svg>