<svg width="24" height="24" fill="none" xmlns="http://www.w3.org/2000/svg"><circle cx="12" cy="13" r="9" stroke="#292929" stroke-width="1.5" stroke-linecap="round"/><path d="m5 19-2 2m16-2 2 2" stroke="#292929" stroke-width="1.5" stroke-linecap="round" stroke-linejoin="round"/><path d="m19 3.57.596-.298c.845-.423 1.162-.374 1.834.298.672.672.72.99.298 1.834L21.43 6M5 3.57l-.596-.298c-.845-.423-1.162-.374-1.834.298-.672.672-.72.99-.298 1.834L2.57 6" stroke="#292929" stroke-width="1.5" stroke-linecap="round"/><path d="M12 9.5v4l2 2m-2-12V2m-2 0h4" stroke="#292929" stroke-width="1.5" stroke-linecap="round" stroke-linejoin="round"/></svg>