<svg width="90" height="90" viewBox="0 0 90 90" fill="none" xmlns="http://www.w3.org/2000/svg">
<g clip-path="url(#clip0_196_323)">
<path fill-rule="evenodd" clip-rule="evenodd" d="M59.6257 90.3482C66.6675 88.7662 73.0519 85.2488 78.2128 80.0932C84.0523 74.2537 87.7753 66.8586 88.9847 58.7111C89.0708 58.1346 88.6701 57.5984 88.097 57.5123C87.5169 57.4279 86.9808 57.8252 86.8947 58.4C85.7574 66.0975 82.2347 73.083 76.7169 78.6025C71.7494 83.5719 65.5654 86.9293 58.7521 88.3777L62.1447 82.6473C62.4382 82.1445 62.273 81.4977 61.772 81.2023C61.271 80.9053 60.6189 81.0705 60.3271 81.5732L55.7603 89.2883C55.4667 89.7892 55.632 90.4361 56.1329 90.7332L63.848 95.2982C64.0203 95.3967 64.2066 95.4441 64.3841 95.4441C64.7497 95.4441 65.0925 95.2596 65.2929 94.9273C65.5865 94.4246 65.4212 93.7795 64.9203 93.4824L59.6257 90.3482ZM16.547 27.5609C21.5216 22.5846 27.6968 19.2307 34.5119 17.784L31.1193 23.5162C30.8257 24.0172 30.991 24.6641 31.4919 24.9611C31.6642 25.0613 31.8505 25.1088 32.0281 25.1088C32.3867 25.1088 32.7435 24.9242 32.9369 24.5902L37.5037 16.8734C37.7972 16.3725 37.632 15.7256 37.131 15.4285L29.4142 10.8652C28.9132 10.5682 28.2699 10.7351 27.9693 11.2361C27.6757 11.7371 27.841 12.384 28.3419 12.681L33.6382 15.817C26.5964 17.3973 20.2191 20.9076 15.0581 26.0703C9.21166 31.9115 5.48861 39.3066 4.27923 47.4541C4.1931 48.0307 4.59388 48.5668 5.16693 48.6512C5.22494 48.66 5.27416 48.6635 5.32513 48.6635C5.84017 48.6635 6.29193 48.2873 6.36927 47.7635C7.50658 40.0643 11.0292 33.0787 16.547 27.5609ZM33.2585 53.0826C33.2585 54.2322 33.4079 55.366 33.6945 56.4664L29.1277 61.0297C29.0204 60.998 28.9132 60.9699 28.813 60.9418C28.247 59.6639 27.8181 58.3244 27.5456 56.9568C27.4454 56.4646 27.0095 56.1113 26.5085 56.1113H21.6341V50.0557H26.5085C27.0095 50.0557 27.4454 49.7006 27.5456 49.2101C28.0396 46.7475 28.9994 44.4307 30.3933 42.3283C30.6728 41.91 30.6148 41.3527 30.265 40.9994L26.8144 37.5506L31.0947 33.2685L34.5435 36.7174C34.8933 37.0725 35.4523 37.1269 35.8742 36.8492C37.9712 35.4535 40.2898 34.4937 42.7525 33.9963C43.2464 33.8961 43.5962 33.4637 43.5962 32.9627V28.0883H49.6589V32.9627C49.6589 33.4637 50.0087 33.8961 50.5027 33.9963C51.8703 34.2723 53.208 34.6994 54.4824 35.2637C54.5175 35.3709 54.5474 35.4764 54.5755 35.5836L50.0087 40.1469C48.9136 39.8603 47.7763 39.7127 46.6302 39.7127C39.2562 39.7092 33.2585 45.7086 33.2585 53.0826ZM36.7372 69.548C36.4507 69.8346 36.3505 70.2599 36.4859 70.6432C38.0169 75.0148 36.8937 79.956 33.6224 83.2291C30.33 86.518 25.4855 87.6043 21.1613 86.14L28.8341 78.4689C29.0345 78.2721 29.1417 78.0031 29.1417 77.7236C29.1417 77.4441 29.0345 77.1769 28.8341 76.9783L22.7363 70.8805C22.3214 70.4674 21.6552 70.4674 21.2404 70.8805L13.5745 78.5516C12.1068 74.2291 13.1949 69.3828 16.4802 66.0939C19.7585 62.8209 24.6962 61.6941 29.0697 63.2269C29.4494 63.3605 29.8783 63.2639 30.1648 62.9773L35.6263 57.5141C35.6263 57.5105 35.6333 57.5088 35.6333 57.5053L51.0564 42.0857C51.0564 42.084 51.0564 42.084 51.0564 42.0822L56.5249 36.6154C56.8115 36.3289 56.9117 35.9035 56.7763 35.5203C55.2453 31.1486 56.3685 26.2074 59.6468 22.9326C62.9322 19.6455 67.7767 18.5574 72.1009 20.0217L64.4281 27.6928C64.2347 27.8896 64.1204 28.1586 64.1204 28.4381C64.1204 28.7176 64.2347 28.9865 64.4281 29.1834L70.5259 35.283C70.7263 35.4799 70.9917 35.5924 71.2695 35.5924C71.556 35.5924 71.8214 35.4799 72.0218 35.283L79.6947 27.6119C81.1554 31.9326 80.0673 36.7807 76.782 40.0695C73.5037 43.3426 68.566 44.4676 64.1925 42.9365C63.8128 42.8029 63.3839 42.8996 63.0974 43.1861L57.6359 48.6512C57.6288 48.6529 57.6288 48.6547 57.6288 48.6564L42.2058 64.0777V64.0812L36.7372 69.548ZM49.6624 73.2043V78.0769H43.5997V73.2043C43.5997 72.7033 43.2482 72.2691 42.756 72.1707C41.3884 71.8947 40.0507 71.4676 38.7763 70.9033C38.7482 70.7978 38.7113 70.6906 38.6831 70.5851L43.2499 66.0219C44.3521 66.3084 45.4824 66.456 46.6355 66.456C54.0078 66.456 60.0054 60.4584 60.0054 53.0844C60.0054 51.9365 59.863 50.801 59.5695 49.7006L64.1363 45.1373C64.2435 45.1689 64.3507 45.1971 64.458 45.2252C65.0169 46.5031 65.4458 47.8408 65.7253 49.2101C65.8185 49.7023 66.2544 50.0557 66.7554 50.0557H71.6298V56.1113H66.7554C66.2544 56.1113 65.8185 56.4646 65.7253 56.9568C65.2244 59.423 64.2646 61.7381 62.8689 63.8404C62.5894 64.2588 62.6474 64.8143 62.9972 65.1693L66.446 68.6146L62.1658 72.8967L58.7169 69.4478C58.3654 69.0928 57.8081 69.0365 57.3863 69.3142C55.2892 70.7099 52.9706 71.6697 50.5079 72.1672C50.0122 72.2691 49.6624 72.7016 49.6624 73.2043Z" fill="#00AAA3"/>
</g>
<defs>
<clipPath id="clip0_196_323">
<rect width="90" height="90" fill="white"/>
</clipPath>
</defs>
</svg>
