<svg width="90" height="90" viewBox="0 0 90 90" fill="none" xmlns="http://www.w3.org/2000/svg">
<path fill-rule="evenodd" clip-rule="evenodd" d="M85.0523 63.2687L78.1441 50.9113H55.4051L61.6699 62.6957C61.8352 63.0068 61.8334 63.3812 61.6664 63.6906L55.5404 75.0619L78.2725 75.0848L85.0523 63.2687ZM20.0994 24.3139L28.7057 15.683C29.117 15.2699 29.117 14.6037 28.7039 14.1924C28.2908 13.7811 27.6246 13.7811 27.2133 14.1941L19.3523 22.0744L16.7508 19.4658C16.3395 19.0545 15.6715 19.0527 15.2584 19.4641C14.8471 19.8754 14.8453 20.5434 15.2566 20.9547L18.6053 24.3121C18.8039 24.5107 19.0711 24.6215 19.3523 24.6215C19.6318 24.6232 19.9008 24.5125 20.0994 24.3139ZM45.5016 33.2049L54.1096 24.574C54.5209 24.1609 54.5191 23.493 54.1061 23.0834C53.6947 22.6721 53.0268 22.6721 52.6154 23.0852L44.7545 30.9672L42.1529 28.3586C41.7416 27.9455 41.0736 27.9455 40.6623 28.3568C40.2492 28.7682 40.2475 29.4361 40.6588 29.8475L44.0074 33.2049C44.2061 33.4035 44.475 33.5143 44.7545 33.5143C45.0357 33.5143 45.3029 33.4035 45.5016 33.2049ZM65.0924 20.9564L68.441 24.3139C68.6397 24.5125 68.9068 24.6232 69.1881 24.6232C69.4676 24.6232 69.7365 24.5107 69.9352 24.3139L78.5414 15.683C78.9527 15.2699 78.9527 14.6037 78.5396 14.1924C78.1266 13.7811 77.4604 13.7811 77.049 14.1941L69.1881 22.0744L66.5865 19.4658C66.1752 19.0545 65.5072 19.0527 65.0941 19.4641C64.6828 19.8771 64.6811 20.5434 65.0924 20.9564ZM60.0686 21.8125C60.0686 16.917 64.043 12.9355 68.9262 12.9355C70.3535 12.9355 71.7721 13.2836 73.0289 13.9428C73.5457 14.2135 73.7443 14.8516 73.4736 15.3666C73.2029 15.8834 72.5648 16.082 72.0498 15.8113C71.0795 15.3033 70.0283 15.0449 68.9262 15.0449C65.2066 15.0449 62.1779 18.0807 62.1779 21.8125C62.1779 25.5443 65.2066 28.5801 68.9262 28.5801C72.6475 28.5801 75.6744 25.5443 75.6744 21.8125C75.6744 21.6789 75.6709 21.5453 75.6621 21.4135C75.6287 20.8316 76.0717 20.3324 76.6535 20.299C77.2406 20.2656 77.7346 20.7086 77.768 21.2904C77.7785 21.4627 77.7838 21.6385 77.7838 21.8125C77.7838 26.1648 74.6426 29.793 70.5135 30.5453V48.8037H68.4041V30.6736C63.7635 30.4029 60.0686 26.5322 60.0686 21.8125ZM35.6367 30.7035C35.6367 25.808 39.6094 21.8248 44.4943 21.8248C45.9199 21.8248 47.3385 22.1729 48.5953 22.8338C49.1121 23.1045 49.3107 23.7426 49.04 24.2576C48.7693 24.7744 48.1313 24.9713 47.6162 24.7006C46.6459 24.1908 45.5965 23.9342 44.4943 23.9342C40.773 23.9342 37.7461 26.9699 37.7461 30.7018C37.7461 34.4336 40.773 37.4693 44.4943 37.4693C48.2139 37.4693 51.2408 34.4336 51.2408 30.7018C51.2408 30.5682 51.2373 30.4346 51.2303 30.3027C51.1969 29.7209 51.6398 29.2217 52.2217 29.1883C52.8053 29.1566 53.3027 29.5996 53.3361 30.1814C53.3449 30.3537 53.3502 30.5295 53.3502 30.7018C53.3502 35.0541 50.209 38.6822 46.0816 39.4346V48.802H43.9723V39.5646C39.3299 39.2939 35.6367 35.4232 35.6367 30.7035ZM20.6777 48.8037H18.5684V30.6736C13.9277 30.4012 10.2328 26.5322 10.2328 21.8125C10.2328 16.917 14.2072 12.9355 19.0904 12.9355C20.5178 12.9355 21.9363 13.2836 23.1932 13.9428C23.7082 14.2135 23.9068 14.8516 23.6379 15.3666C23.3672 15.8834 22.7291 16.082 22.2123 15.8113C21.2437 15.3033 20.1926 15.0449 19.0904 15.0449C15.3691 15.0449 12.3422 18.0807 12.3422 21.8125C12.3422 25.5443 15.3691 28.5801 19.0904 28.5801C22.8117 28.5801 25.8387 25.5443 25.8387 21.8125C25.8387 21.6789 25.8352 21.5453 25.8264 21.4135C25.793 20.8316 26.2377 20.3342 26.8195 20.3008C27.3996 20.2691 27.8988 20.7121 27.9322 21.2922C27.9428 21.4645 27.948 21.6402 27.948 21.8125C27.948 26.1648 24.8068 29.793 20.6777 30.5453V48.8037ZM35.0145 63.165L27.876 50.9131H5.41992L11.8289 62.7449C12.0029 63.0648 11.9994 63.4498 11.8201 63.7662L5.45508 75.0109L28.1256 75.0355L35.0145 63.165ZM59.5412 63.1879L53.1445 75.0584L30.5637 75.0355L37.1467 63.6924C37.3383 63.3637 37.3365 62.9594 37.1467 62.6324L30.3176 50.9113H53.0162L59.5412 63.1879Z" fill="#00AAA3"/>
</svg>
