<svg width="90" height="90" viewBox="0 0 90 90" fill="none" xmlns="http://www.w3.org/2000/svg">
<path fill-rule="evenodd" clip-rule="evenodd" d="M32.4947 61.4831L30.3607 63.6189C29.8158 64.162 28.9879 64.2499 28.341 63.8333L26.8662 62.8788C26.7097 62.9509 26.5498 63.0159 26.3898 63.0775L26.0207 64.7948C25.859 65.5454 25.2103 66.071 24.4404 66.071H21.4222C20.6541 66.071 20.0037 65.5454 19.8437 64.7948L19.4746 63.0775C19.3129 63.0159 19.1529 62.9491 18.9965 62.8788L17.5217 63.8333C16.8765 64.2499 16.0469 64.162 15.5019 63.6189L13.3679 61.4849C12.8248 60.94 12.7369 60.1103 13.1535 59.4652L14.1062 57.9903C14.0359 57.8321 13.9709 57.6722 13.9076 57.5122L12.192 57.1431C11.4414 56.9814 10.9158 56.3327 10.9158 55.5646V52.5446C10.9158 51.7765 11.4414 51.1278 12.192 50.9661L13.9076 50.597C13.9709 50.437 14.0359 50.2771 14.1062 50.1189L13.1535 48.6441C12.7369 47.9989 12.8248 47.1693 13.3679 46.6261L15.5019 44.4903C16.0451 43.9472 16.8765 43.8593 17.5217 44.2759L18.9965 45.2304C19.1547 45.1601 19.3129 45.0933 19.4746 45.0318L19.8437 43.3144C20.0037 42.5638 20.6541 42.0382 21.4222 42.0382H24.4404C25.2103 42.0382 25.859 42.5638 26.0207 43.3161L26.3898 45.0318C26.5498 45.0933 26.7097 45.1601 26.8662 45.2304L28.341 44.2759C28.9879 43.8593 29.8176 43.9472 30.3607 44.4903L32.4947 46.6261C33.0379 47.1693 33.1275 47.9989 32.7092 48.6441L31.7564 50.1189C31.8267 50.2771 31.8935 50.437 31.9551 50.597L33.6707 50.9661C34.423 51.1278 34.9469 51.7765 34.9469 52.5446V55.5646C34.9469 56.3327 34.423 56.9814 33.6707 57.1431L31.9551 57.5122C31.8935 57.6722 31.8267 57.8321 31.7564 57.9903L32.7092 59.4652C33.1258 60.1103 33.0361 60.94 32.4947 61.4831ZM63.8031 20.73C63.8031 22.4825 65.2287 23.9081 66.9812 23.9081C68.7338 23.9081 70.1594 22.4825 70.1594 20.73C70.1594 18.9775 68.7338 17.5519 66.9812 17.5519C65.2287 17.5519 63.8031 18.9775 63.8031 20.73ZM59.1924 26.9509L60.0765 25.5816C60.3842 25.1052 60.4211 24.5146 60.175 24.003C60.0537 23.7499 59.9447 23.4898 59.8533 23.2261C59.6652 22.6917 59.2222 22.3015 58.6685 22.1819L57.076 21.8409V19.6208L58.6668 19.278C59.2222 19.1603 59.6652 18.7683 59.8533 18.2339C59.9447 17.9702 60.0537 17.7101 60.175 17.4569C60.4211 16.9454 60.3842 16.3548 60.0765 15.8784L59.1924 14.5109L60.7621 12.9411L62.1297 13.8253C62.6078 14.1329 63.1967 14.1698 63.7082 13.9237C63.9613 13.8025 64.2232 13.6935 64.4851 13.6003C65.0213 13.414 65.4115 12.9693 65.5293 12.4155L65.872 10.8247H68.0922L68.4332 12.4155C68.5527 12.971 68.9447 13.414 69.4791 13.6003C69.741 13.6935 70.0029 13.8007 70.2543 13.9237C70.7658 14.1698 71.3564 14.1329 71.8328 13.8253L73.2021 12.9411L74.7719 14.5109L73.8877 15.8784C73.5783 16.3566 73.5414 16.9454 73.7892 17.4569C73.9105 17.7101 74.0195 17.9702 74.1109 18.2339C74.299 18.7683 74.742 19.1585 75.2957 19.278L76.8883 19.6208V21.8409L75.2957 22.1819C74.742 22.3015 74.299 22.6917 74.1109 23.2278C74.0195 23.4898 73.9105 23.7499 73.7892 24.003C73.5414 24.5146 73.5783 25.1052 73.8877 25.5816L74.7719 26.9509L73.2021 28.5206L71.8328 27.6364C71.3564 27.3271 70.7658 27.2902 70.2543 27.538C70.0029 27.6593 69.741 27.7665 69.4791 27.8597C68.9447 28.046 68.5527 28.489 68.4332 29.0445L68.0922 30.637H65.872L65.5293 29.0445C65.4097 28.489 65.0195 28.046 64.4851 27.8597C64.2215 27.7665 63.9613 27.6593 63.7082 27.538C63.1967 27.2902 62.6078 27.3271 62.1297 27.6364L60.7621 28.5206L59.1924 26.9509ZM66.9812 26.0175C64.0668 26.0175 61.6937 23.6462 61.6937 20.73C61.6937 17.8138 64.0668 15.4425 66.9812 15.4425C69.8974 15.4425 72.2687 17.8138 72.2687 20.73C72.2705 23.6462 69.8974 26.0175 66.9812 26.0175ZM47.7965 33.8011C47.7631 33.5216 47.6207 33.2667 47.3992 33.0945C47.1777 32.9204 46.8965 32.8431 46.617 32.8765L45.2248 33.0505C44.5533 33.1349 43.9486 32.8624 43.5672 32.2999C43.1681 31.7128 43.1242 31.0536 43.4494 30.5368L48.0197 23.2964C48.1058 23.1593 48.1603 23.0028 48.1762 22.8411C49.1605 13.24 53.9611 6.81691 61.3457 5.21906C68.9429 3.5755 77.667 7.46379 81.6379 14.2648C86.0763 21.8673 83.9265 31.5089 75.7369 40.7146C75.5646 40.9062 75.4697 41.1558 75.4697 41.4142V52.0085L57.7597 51.7554V43.0278C57.7597 42.715 57.6226 42.4196 57.3836 42.2193C57.1463 42.0189 56.8316 41.9345 56.524 41.9872L50.8656 42.9716C50.3277 43.0665 49.8513 42.9523 49.4136 42.6253C48.976 42.2984 48.7334 41.8747 48.6701 41.3316L47.7965 33.8011ZM59.5527 30.2943L57.4187 28.1603C56.8756 27.6153 56.7859 26.7857 57.2043 26.1405L58.157 24.6657C58.0867 24.5075 58.0199 24.3476 57.9584 24.1876L56.2427 23.8185C55.4904 23.6568 54.9666 23.0081 54.9666 22.24V19.2218C54.9666 18.4519 55.4904 17.8032 56.2427 17.6415L57.9584 17.2724C58.0199 17.1124 58.0867 16.9525 58.157 16.7943L57.2043 15.3195C56.7859 14.6743 56.8756 13.8446 57.4187 13.3015L59.5527 11.1675C60.0959 10.6226 60.9256 10.5347 61.5724 10.953L63.0472 11.9058C63.2037 11.8355 63.3637 11.7687 63.5236 11.7071L63.8928 9.98976C64.0545 9.23918 64.7049 8.71535 65.473 8.71535H68.4912C69.2594 8.71535 69.9097 9.23918 70.0697 9.98976L70.4388 11.7071C70.6006 11.7687 70.7588 11.8355 70.917 11.9058L72.3918 10.953C73.0369 10.5347 73.8666 10.6226 74.4115 11.1657L76.5455 13.3015C77.0886 13.8446 77.1765 14.6743 76.7599 15.3212L75.8072 16.7943C75.8775 16.9525 75.9426 17.1124 76.0058 17.2724L77.7215 17.6415C78.472 17.8032 78.9976 18.4519 78.9976 19.2218V22.24C78.9976 23.0081 78.472 23.6568 77.7215 23.8185L76.0058 24.1876C75.9443 24.3476 75.8775 24.5075 75.8072 24.6657L76.7599 26.1405C77.1765 26.7857 77.0886 27.6154 76.5455 28.1585L74.4115 30.2943C73.8683 30.8374 73.0387 30.9253 72.3918 30.5087L70.917 29.556C70.7588 29.6263 70.6006 29.6913 70.4388 29.7528L70.0697 31.4702C69.9097 32.2208 69.2594 32.7464 68.4912 32.7464H65.473C64.7049 32.7464 64.0545 32.2208 63.8928 31.4702L63.5236 29.7528C63.3637 29.6913 63.2037 29.6263 63.0472 29.556L61.5724 30.5087C60.9256 30.9253 60.0959 30.8374 59.5527 30.2943ZM24.1275 29.2958V15.1085H35.657L34.7359 16.0296C34.3246 16.4409 34.3246 17.1089 34.7359 17.5202C34.9416 17.7259 35.2123 17.8296 35.4812 17.8296C35.7519 17.8296 36.0209 17.7259 36.2265 17.5202L38.9494 14.7991C39.1463 14.6005 39.257 14.3333 39.257 14.0538C39.257 13.7726 39.1463 13.5054 38.9494 13.3068L36.2283 10.5857C35.817 10.1743 35.149 10.1743 34.7377 10.5857C34.3263 10.997 34.3263 11.665 34.7377 12.078L35.6588 12.9991H23.0746C22.491 12.9991 22.0199 13.4702 22.0199 14.0538V29.2958C22.0199 29.8777 22.491 30.3505 23.0746 30.3505C23.6547 30.3505 24.1275 29.8777 24.1275 29.2958ZM53.0049 71.0632L50.2838 73.7861C49.8707 74.1974 49.8707 74.8653 50.2838 75.2767L53.0049 77.9978C53.2105 78.2052 53.4812 78.3072 53.7502 78.3072C54.0209 78.3072 54.2898 78.2052 54.4972 77.9978C54.9086 77.5864 54.9086 76.9185 54.4972 76.5071L53.5762 75.5861H66.2711C66.8529 75.5861 67.3258 75.1132 67.3258 74.5314V59.2894C67.3258 58.7075 66.8529 58.2347 66.2711 58.2347C65.6875 58.2347 65.2164 58.7075 65.2164 59.2894V73.4767H53.5744L54.4972 72.5556C54.9086 72.1443 54.9086 71.4763 54.4972 71.0632C54.0842 70.6519 53.4162 70.6519 53.0049 71.0632ZM28.2179 54.0546C28.2179 51.1384 25.8449 48.7671 22.9304 48.7671C20.0142 48.7671 17.6429 51.1384 17.6429 54.0546C17.6429 56.9708 20.0142 59.3421 22.9304 59.3421C25.8449 59.3421 28.2179 56.9708 28.2179 54.0546ZM29.1496 61.8452L30.7193 60.2738L29.8351 58.9062C29.5275 58.4298 29.4906 57.8392 29.7367 57.3277C29.858 57.0745 29.967 56.8144 30.0584 56.5525C30.2465 56.0163 30.6894 55.6261 31.2449 55.5066L32.8357 55.1655V52.9437L31.2449 52.6027C30.6894 52.4831 30.2465 52.0929 30.0584 51.5568C29.967 51.2948 29.858 51.0347 29.7367 50.7816C29.4906 50.27 29.5275 49.6794 29.8351 49.203L30.7193 47.8355L29.1496 46.2657L27.782 47.1499C27.3039 47.4575 26.715 47.4945 26.2017 47.2484C25.9521 47.1271 25.6902 47.0181 25.4265 46.9249C24.8922 46.7386 24.5002 46.2956 24.3824 45.7402L24.0396 44.1476H21.8195L21.4785 45.7402C21.359 46.2956 20.967 46.7386 20.4326 46.9249C20.1707 47.0181 19.9088 47.1253 19.6574 47.2484C19.1459 47.4945 18.5553 47.4575 18.0789 47.1499L16.7095 46.2657L15.1398 47.8355L16.024 49.203C16.3334 49.6812 16.3703 50.27 16.1224 50.7816C16.0012 51.0347 15.8922 51.2948 15.8008 51.5568C15.6127 52.0929 15.1697 52.4831 14.616 52.6027L13.0234 52.9454V55.1655L14.616 55.5066C15.1697 55.6261 15.6127 56.0163 15.8008 56.5507C15.8922 56.8144 16.0012 57.0745 16.1224 57.3277C16.3703 57.8392 16.3334 58.4298 16.024 58.9062L15.1398 60.2738L16.7095 61.8452L18.0789 60.9593C18.5553 60.6517 19.1459 60.6148 19.6574 60.8626C19.9088 60.9821 20.1689 61.0911 20.4326 61.1843C20.967 61.3706 21.359 61.8136 21.4785 62.3691L21.8195 63.9616H24.0396L24.3824 62.3691C24.5019 61.8136 24.8922 61.3706 25.4265 61.1843C25.6902 61.0911 25.9504 60.9839 26.2035 60.8626C26.7133 60.6148 27.3039 60.6517 27.782 60.9593L29.1496 61.8452ZM22.9322 57.2327C24.6847 57.2327 26.1103 55.8071 26.1103 54.0546C26.1103 52.3021 24.6847 50.8765 22.9322 50.8765C21.1797 50.8765 19.7541 52.3021 19.7541 54.0546C19.7523 55.8071 21.1779 57.2327 22.9322 57.2327ZM8.27381 47.5894C3.83533 55.1919 5.98514 64.8318 14.1748 74.0392C14.347 74.2308 14.442 74.4804 14.442 74.7388V85.3331L32.1519 85.08V76.3507C32.1519 76.0396 32.289 75.7443 32.5281 75.5439C32.7654 75.3435 33.0801 75.2591 33.3877 75.3118L39.0461 76.2962C39.5857 76.3911 40.0603 76.2769 40.498 75.9499C40.9357 75.623 41.1783 75.1993 41.2416 74.6562L42.1152 67.1257C42.1486 66.8462 42.291 66.5913 42.5125 66.4173C42.734 66.245 43.0152 66.1677 43.2947 66.2011L44.6851 66.3751C45.3584 66.4595 45.9631 66.1853 46.3445 65.6245C46.7435 65.0374 46.7875 64.3782 46.4623 63.8614L41.892 56.621C41.8058 56.4821 41.7513 56.3275 41.7355 56.1657C40.7511 46.5646 35.9506 40.1415 28.566 38.5437C27.3935 38.2905 26.1965 38.1675 24.9924 38.1675C18.3918 38.1675 11.633 41.8378 8.27381 47.5894Z" fill="#00AAA3"/>
</svg>
