<svg width="90" height="90" viewBox="0 0 90 90" fill="none" xmlns="http://www.w3.org/2000/svg">
<path fill-rule="evenodd" clip-rule="evenodd" d="M41.3939 37.8068C41.3939 39.7721 42.9918 41.3699 44.957 41.3699C46.9223 41.3699 48.5201 39.7721 48.5201 37.8068C48.5201 35.8416 46.9223 34.2438 44.957 34.2438C42.9918 34.2438 41.3939 35.8416 41.3939 37.8068ZM74.4338 14.1273L63.4105 25.1506L64.9012 26.6412L75.9244 15.618C76.7594 16.1682 77.7367 16.4635 78.758 16.4635C80.1396 16.4635 81.4369 15.9256 82.4143 14.9482C83.3898 13.9727 83.9277 12.6736 83.9277 11.2937C83.9277 9.91211 83.3898 8.61309 82.4143 7.6375C81.4369 6.66191 80.1396 6.12402 78.758 6.12402C77.3781 6.12402 76.0791 6.66191 75.1035 7.6375C74.1262 8.61309 73.5883 9.91211 73.5883 11.2937C73.5883 12.315 73.8836 13.2924 74.4338 14.1273ZM46.0117 17.9436V12.9619C48.3584 12.475 50.1268 10.3902 50.1268 7.90117C50.1268 5.05 47.8082 2.73145 44.957 2.73145C42.1059 2.73145 39.7873 5.05 39.7873 7.90117C39.7873 10.3902 41.5557 12.475 43.9023 12.9619V17.9436H46.0117ZM26.5035 25.1506L15.4803 14.1273C16.0305 13.2924 16.3258 12.315 16.3258 11.2937C16.3258 9.91211 15.7879 8.61484 14.8105 7.6375C13.835 6.66191 12.5359 6.12402 11.1561 6.12402C9.77441 6.12402 8.47539 6.66191 7.4998 7.6375C6.52422 8.61484 5.98633 9.91211 5.98633 11.2937C5.98633 12.6736 6.52422 13.9727 7.4998 14.9482C8.47539 15.9256 9.77441 16.4635 11.1561 16.4635C12.1773 16.4635 13.1547 16.1682 13.9896 15.618L25.0129 26.6412L26.5035 25.1506ZM17.8059 44.04H12.826C12.3373 41.6934 10.2525 39.925 7.76348 39.925C4.9123 39.925 2.59375 42.2436 2.59375 45.0947C2.59375 47.9459 4.9123 50.2645 7.76348 50.2645C10.2525 50.2645 12.3373 48.4961 12.826 46.1494H17.8059V44.04ZM25.0129 63.5482L13.9896 74.5715C13.1547 74.0213 12.1773 73.726 11.1561 73.726C9.77441 73.726 8.47715 74.2639 7.4998 75.2412C6.52422 76.2168 5.98633 77.5158 5.98633 78.8957C5.98633 80.2773 6.52422 81.5764 7.4998 82.552C8.47715 83.5275 9.77441 84.0654 11.1561 84.0654C12.5359 84.0654 13.835 83.5275 14.8105 82.552C15.7879 81.5764 16.3258 80.2773 16.3258 78.8957C16.3258 77.8744 16.0305 76.8971 15.4803 76.0621L26.5035 65.0389L25.0129 63.5482ZM43.9023 72.2459V77.2275C41.5557 77.7145 39.7873 79.7992 39.7873 82.2883C39.7873 85.1395 42.1059 87.458 44.957 87.458C47.8082 87.458 50.1268 85.1395 50.1268 82.2883C50.1268 79.7992 48.3584 77.7145 46.0117 77.2275V72.2459H43.9023ZM63.4105 65.0389L74.4338 76.0621C73.8836 76.8971 73.5883 77.8744 73.5883 78.8957C73.5883 80.2773 74.1262 81.5764 75.1035 82.552C76.0791 83.5275 77.3781 84.0654 78.758 84.0654C80.1396 84.0654 81.4387 83.5275 82.4143 82.552C83.3898 81.5764 83.9277 80.2773 83.9277 78.8957C83.9277 77.5158 83.3898 76.2168 82.4143 75.2412C81.4387 74.2639 80.1396 73.726 78.758 73.726C77.7367 73.726 76.7594 74.0213 75.9244 74.5715L64.9012 63.5482L63.4105 65.0389ZM72.1082 46.1494H77.0881C77.5768 48.4961 79.6615 50.2645 82.1506 50.2645C85.0018 50.2645 87.3203 47.9459 87.3203 45.0947C87.3203 42.2436 85.0018 39.925 82.1506 39.925C79.6615 39.925 77.5768 41.6934 77.0881 44.04H72.1082V46.1494ZM28.5865 45.0947C28.5865 36.0684 35.9307 28.7242 44.957 28.7242C53.9834 28.7242 61.3275 36.0684 61.3275 45.0947C61.3275 54.1211 53.9834 61.4652 44.957 61.4652C35.9307 61.4652 28.5865 54.1211 28.5865 45.0947ZM65.2141 59.892C65.2896 60.008 65.2756 60.1416 65.1771 60.24L60.1023 65.3148C60.0039 65.4133 59.8703 65.4273 59.7543 65.3518L55.7025 62.7344C54.9871 62.2721 54.1381 62.2193 53.3699 62.5885C52.7213 62.9014 52.0498 63.1791 51.3748 63.4164C50.5715 63.6977 50.009 64.3357 49.8297 65.1689L48.8172 69.8816C48.7891 70.017 48.6854 70.1014 48.5465 70.1014H41.3676C41.2287 70.1014 41.125 70.017 41.0969 69.8816L40.0826 65.1689C39.9051 64.3375 39.3426 63.6977 38.5393 63.4164C37.8625 63.1791 37.1928 62.9014 36.5441 62.5885C36.2066 62.425 35.8516 62.3441 35.5 62.3441C35.0535 62.3441 34.6105 62.476 34.2115 62.7344L30.1598 65.3518C30.0438 65.4273 29.9102 65.4133 29.8117 65.3148L24.7369 60.24C24.6385 60.1416 24.6244 60.008 24.7 59.892L27.3174 55.8402C27.7797 55.1248 27.8324 54.2758 27.4633 53.5076C27.1504 52.8607 26.8727 52.1893 26.6354 51.5125C26.3541 50.7109 25.716 50.1467 24.8828 49.9674L20.1701 48.9549C20.033 48.9268 19.9504 48.823 19.9504 48.6842V41.5053C19.9504 41.3664 20.033 41.2627 20.1701 41.2346L24.8828 40.2221C25.7143 40.0428 26.3541 39.4803 26.6354 38.677C26.8727 38.002 27.1504 37.3305 27.4633 36.6818C27.8324 35.9154 27.7814 35.0647 27.3174 34.3492L24.7 30.2975C24.6244 30.1814 24.6385 30.0479 24.7369 29.9494L29.8117 24.8746C29.9102 24.7762 30.0438 24.7621 30.1598 24.8377L34.2098 27.4551C34.927 27.9191 35.776 27.9701 36.5441 27.601C37.1928 27.2881 37.8643 27.0104 38.5393 26.773C39.3408 26.4918 39.9051 25.8537 40.0826 25.0205L41.0969 20.3078C41.125 20.1725 41.2287 20.0881 41.3676 20.0881H48.5465C48.6854 20.0881 48.7891 20.1725 48.8172 20.3078L49.8297 25.0205C50.009 25.8537 50.5715 26.4918 51.3748 26.773C52.0498 27.0104 52.7213 27.2881 53.3699 27.601C54.1381 27.9701 54.9871 27.9174 55.7025 27.4551L59.7543 24.8377C59.8703 24.7621 60.0039 24.7762 60.1023 24.8746L65.1771 29.9494C65.2756 30.0479 65.2896 30.1814 65.2141 30.2975L62.5967 34.3492C62.1344 35.0629 62.0816 35.9137 62.4508 36.6818C62.7637 37.3305 63.0414 38.002 63.2787 38.677C63.56 39.4803 64.1998 40.0428 65.0313 40.2203L69.7439 41.2346C69.8793 41.2627 69.9637 41.3664 69.9637 41.5053V48.6842C69.9637 48.823 69.8793 48.9268 69.7439 48.9549L65.0313 49.9674C64.198 50.1467 63.56 50.7092 63.2787 51.5125C63.0414 52.1875 62.7637 52.859 62.4508 53.5076C62.0816 54.2758 62.1344 55.1248 62.5967 55.8402L65.2141 59.892ZM47.6834 50.6775L48.6045 58.8795C50.6945 58.3275 52.5947 57.3098 54.1943 55.9457V53.4936C54.1943 50.5791 51.8494 48.2025 48.9473 48.1516L47.6834 50.6775ZM41.3078 58.8795L42.2307 50.6758L40.9668 48.1516C38.0646 48.2025 35.7197 50.5791 35.7197 53.4936V55.9457C37.3176 57.3098 39.2195 58.3275 41.3078 58.8795ZM45.6584 51.5389H44.2557L43.3873 59.2662C43.9041 59.3242 44.4262 59.3559 44.957 59.3559C45.4879 59.3559 46.01 59.3242 46.5268 59.2662L45.6584 51.5389ZM46.59 48.148H43.324L43.9656 49.4295H45.9484L46.59 48.148Z" fill="#00AAA3"/>
</svg>
