<svg width="90" height="90" viewBox="0 0 90 90" fill="none" xmlns="http://www.w3.org/2000/svg">
<path fill-rule="evenodd" clip-rule="evenodd" d="M47.332 63.9457C63.6164 63.9457 76.865 50.6971 76.865 34.4109C76.865 33.8291 76.3922 33.3562 75.8104 33.3562C75.2285 33.3562 74.7557 33.8273 74.7557 34.4109C74.7557 49.5334 62.4527 61.8346 47.332 61.8346C41.9373 61.8346 36.7975 60.3 32.3449 57.382L35.7797 56.4627C36.3422 56.3115 36.6762 55.7332 36.525 55.1707C36.3738 54.6082 35.7955 54.276 35.233 54.4254L29.6396 55.9248C29.3689 55.9986 29.1387 56.1744 28.9998 56.417C28.8592 56.6596 28.8205 56.9461 28.8943 57.2168L30.392 62.8102C30.5186 63.2812 30.9457 63.5924 31.4098 63.5924C31.5012 63.5924 31.5926 63.5818 31.684 63.5572C32.2465 63.4061 32.5805 62.8277 32.4293 62.2652L31.6787 59.4633C36.3615 62.4023 41.7176 63.9457 47.332 63.9457ZM15.2537 81.0773L20.4709 76.4473C20.9068 76.0605 20.9473 75.3943 20.5605 74.9584C20.1738 74.5225 19.5076 74.482 19.0717 74.8688L14.6016 78.8361L12.2039 76.4086C11.7943 75.9938 11.1264 75.9902 10.7133 76.398C10.2984 76.8076 10.2932 77.4756 10.7027 77.8904L13.8035 81.0281C14.0092 81.2373 14.2799 81.3428 14.5541 81.3428C14.8055 81.3428 15.0551 81.2549 15.2537 81.0773ZM50.5699 79.7186L48.8227 77.973L50.5699 76.2275C50.9813 75.8145 50.9813 75.1482 50.5699 74.7352C50.1568 74.3238 49.4889 74.3238 49.0775 74.7352L47.332 76.4807L45.5865 74.7352C45.1734 74.3238 44.5072 74.3238 44.0941 74.7352C43.6828 75.1482 43.6828 75.8145 44.0941 76.2275L45.8396 77.973L44.0941 79.7186C43.6828 80.1299 43.6828 80.7979 44.0941 81.2109C44.2998 81.4166 44.5705 81.5186 44.8412 81.5186C45.1102 81.5186 45.3809 81.4166 45.5865 81.2109L47.332 79.4637L49.0775 81.2109C49.2832 81.4166 49.5539 81.5186 49.8229 81.5186C50.0936 81.5186 50.3625 81.4166 50.5699 81.2109C50.9813 80.7979 50.9813 80.1299 50.5699 79.7186ZM74.1404 77.8904L77.2395 81.0281C77.4451 81.2373 77.7176 81.3428 77.99 81.3428C78.2396 81.3428 78.4893 81.2549 78.6897 81.0773L83.9086 76.4473C84.3445 76.0605 84.3832 75.3943 83.9965 74.9584C83.6098 74.5225 82.9436 74.482 82.5076 74.8688L78.0375 78.8361L75.6416 76.4086C75.232 75.9938 74.5641 75.9902 74.1492 76.398C73.7344 76.8076 73.7309 77.4756 74.1404 77.8904ZM26.2084 76.9184H36.7377C37.2686 71.5412 41.816 67.3277 47.3303 67.3277C52.8445 67.3277 57.392 71.5412 57.9229 76.9184H68.4539C68.9865 71.5412 73.534 67.3277 79.0482 67.3277C84.9176 67.3277 89.6936 72.1037 89.6936 77.973C89.6936 83.8424 84.9176 88.6184 79.0482 88.6184C73.534 88.6184 68.9865 84.4049 68.4539 79.0277H57.9229C57.392 84.4049 52.8445 88.6184 47.3303 88.6184C41.816 88.6184 37.2686 84.4049 36.7377 79.0277H26.2084C25.6758 84.4049 21.1283 88.6184 15.6141 88.6184C9.74473 88.6184 4.96875 83.8424 4.96875 77.973C4.96875 72.102 9.74473 67.3277 15.6141 67.3277C21.1283 67.3277 25.6758 71.5412 26.2084 76.9184ZM38.7961 77.973C38.7961 73.2656 42.6246 69.4354 47.332 69.4354C52.0395 69.4354 55.868 73.2656 55.868 77.973C55.868 82.6805 52.0395 86.509 47.332 86.509C42.6246 86.509 38.7961 82.6805 38.7961 77.973ZM70.5123 77.973C70.5123 73.2656 74.3426 69.4354 79.05 69.4354C83.7557 69.4354 87.5859 73.2656 87.5859 77.973C87.5859 82.6805 83.7557 86.509 79.05 86.509C74.3408 86.509 70.5123 82.6805 70.5123 77.973ZM15.6141 69.4354C20.3215 69.4354 24.15 73.2656 24.15 77.973C24.15 82.6805 20.3215 86.509 15.6141 86.509C10.9066 86.509 7.07812 82.6805 7.07812 77.973C7.07637 73.2656 10.9066 69.4354 15.6141 69.4354ZM19.9084 34.4109C19.9084 34.9945 19.4355 35.4656 18.8537 35.4656C18.2701 35.4656 17.799 34.9945 17.799 34.4109C17.799 18.1266 31.0477 4.87793 47.332 4.87793C52.9465 4.87793 58.3025 6.41953 62.9836 9.36035L62.233 6.5584C62.0836 5.9959 62.4176 5.41758 62.9801 5.26641C63.5426 5.11523 64.1209 5.44922 64.2703 6.01172L65.7697 11.6051C65.9209 12.1676 65.5869 12.7459 65.0244 12.8971L59.4311 14.3965C59.3397 14.4211 59.2465 14.4316 59.1568 14.4316C58.691 14.4316 58.2656 14.1205 58.1391 13.6494C57.9879 13.0869 58.3219 12.5086 58.8844 12.3574L62.3191 11.4381C57.8666 8.51836 52.7285 6.98555 47.332 6.98555C32.2096 6.98906 19.9084 19.2902 19.9084 34.4109ZM33.6967 37.9178C34.2012 37.626 34.8463 37.8 35.1381 38.3045C35.4299 38.809 35.2559 39.4541 34.7514 39.7459L31.8861 41.4C31.7209 41.4967 31.5398 41.5424 31.3605 41.5424C30.9967 41.5424 30.6416 41.3525 30.4465 41.015C30.1547 40.5105 30.327 39.8654 30.8314 39.5736L33.6967 37.9178ZM32.1973 30.208H28.8891C28.3055 30.208 27.8344 30.6791 27.8344 31.2627C27.8344 31.8445 28.3055 32.3174 28.8891 32.3174H32.1973C32.7791 32.3174 33.252 31.8445 33.252 31.2627C33.252 30.6809 32.7791 30.208 32.1973 30.208ZM34.7496 22.7813L31.8844 21.1271C31.3799 20.8354 30.7365 21.0094 30.4447 21.5139C30.1529 22.0184 30.3252 22.6635 30.8297 22.9553L33.6949 24.6094C33.8619 24.7061 34.043 24.75 34.2223 24.75C34.5861 24.75 34.9412 24.5619 35.1363 24.2227C35.4299 23.7182 35.2559 23.073 34.7496 22.7813ZM40.677 17.6273L39.0229 14.7639C38.7328 14.2594 38.0877 14.0871 37.5832 14.3771C37.0787 14.6689 36.9064 15.3141 37.1965 15.8186L38.8506 18.6838C39.0457 19.0213 39.4008 19.2111 39.7646 19.2111C39.9439 19.2111 40.125 19.1654 40.292 19.0688C40.7965 18.777 40.9688 18.1336 40.677 17.6273ZM48.3867 16.1279V12.8197C48.3867 12.2361 47.9139 11.765 47.332 11.765C46.7502 11.765 46.2773 12.2379 46.2773 12.8197V16.1279C46.2773 16.7098 46.7502 17.1826 47.332 17.1826C47.9139 17.1826 48.3867 16.7098 48.3867 16.1279ZM54.8994 19.2111C55.2633 19.2111 55.6184 19.0213 55.8135 18.6838L57.4676 15.8186C57.7576 15.3141 57.5854 14.6689 57.0809 14.3771C56.5764 14.0854 55.9313 14.2594 55.6395 14.7639L53.9854 17.6291C53.6953 18.1336 53.8676 18.7787 54.3721 19.0705C54.5373 19.1654 54.7201 19.2111 54.8994 19.2111ZM60.9656 24.6094L63.8291 22.9553C64.3336 22.6635 64.5076 22.0184 64.2158 21.5139C63.924 21.0094 63.2789 20.8371 62.7744 21.1271L59.9109 22.7813C59.4064 23.073 59.2324 23.7182 59.5242 24.2227C59.7193 24.5602 60.0744 24.75 60.4383 24.75C60.6193 24.75 60.8004 24.7043 60.9656 24.6094ZM62.465 32.3174H65.7732C66.3568 32.3174 66.8279 31.8445 66.8279 31.2627C66.8279 30.6791 66.3568 30.208 65.7732 30.208H62.465C61.8832 30.208 61.4104 30.6791 61.4104 31.2627C61.4121 31.8445 61.885 32.3174 62.465 32.3174ZM59.9127 39.7441C59.4082 39.4523 59.2342 38.8072 59.526 38.3027C59.8178 37.7982 60.4629 37.626 60.9674 37.916L63.8309 39.5701C64.3354 39.8619 64.5094 40.507 64.2176 41.0115C64.0225 41.349 63.6674 41.5389 63.3035 41.5389C63.1242 41.5389 62.9432 41.4932 62.7762 41.3965L59.9127 39.7441ZM49.7367 54.1934L49.5012 54.4377C49.2691 54.6768 48.5502 54.9387 47.5166 54.951C46.3248 54.9668 45.4652 54.6486 45.235 54.4219L45.0047 54.1951H49.7367V54.1934ZM51.1729 51.14V52.0822H43.4912V51.14H51.1729ZM51.1729 48.0885V49.0307H43.4912V48.0885H51.1729ZM54.6041 40.7936C53.2242 42.4037 51.9129 43.9348 51.368 45.9791H43.2961C42.7512 43.9348 41.4381 42.4037 40.06 40.7936C38.0121 38.4064 35.8957 35.9367 36.0047 31.2873C36.0047 31.2785 36.0047 31.2715 36.0047 31.2627C36.0047 25.0172 41.0865 19.9354 47.332 19.9354C53.5775 19.9354 58.6594 25.0172 58.6594 31.2627V31.2873C58.7666 35.9367 56.652 38.4064 54.6041 40.7936ZM48.3867 22.5404C48.3867 21.9586 47.9139 21.4857 47.332 21.4857C41.6982 21.4857 37.1156 26.0701 37.1156 31.7039C37.1156 32.2875 37.5867 32.7586 38.1703 32.7586C38.7521 32.7586 39.225 32.2875 39.225 31.7039C39.225 27.2338 42.8619 23.5969 47.332 23.5969C47.9139 23.5951 48.3867 23.124 48.3867 22.5404Z" fill="#00AAA3"/>
</svg>
