<svg width="69" height="69" viewBox="0 0 69 69" fill="none" xmlns="http://www.w3.org/2000/svg">
<g clip-path="url(#clip0_196_302)">
<path d="M55.6088 31.2656H42.5203C42.2418 31.2658 41.9742 31.3736 41.7733 31.5665C41.5724 31.7594 41.4538 32.0224 41.4422 32.3006C41.4422 32.3545 41.3775 33.5944 41.2266 35.5781H56.8702C56.7947 34.4461 56.73 33.3464 56.6869 32.3006C56.6771 32.0218 56.559 31.7577 56.3577 31.5645C56.1564 31.3713 55.8878 31.2641 55.6088 31.2656Z" fill="#00AAA3"/>
<path d="M40.0195 46.672C42.1434 55.8253 45.1945 63.3937 49.0003 64.6875H63.3825C59.9756 59.7605 57.8948 47.6855 57.0323 37.7344H41.0545C40.8389 40.2356 40.5047 43.3838 40.0195 46.672Z" fill="#00AAA3"/>
<path d="M67.9219 66.8438H1.07812C0.792188 66.8438 0.517963 66.9573 0.315776 67.1595C0.113588 67.3617 0 67.6359 0 67.9219C0 68.2078 0.113588 68.482 0.315776 68.6842C0.517963 68.8864 0.792188 69 1.07812 69H67.9219C68.2078 69 68.482 68.8864 68.6842 68.6842C68.8864 68.482 69 68.2078 69 67.9219C69 67.6359 68.8864 67.3617 68.6842 67.1595C68.482 66.9573 68.2078 66.8438 67.9219 66.8438Z" fill="#00AAA3"/>
<path d="M21.0666 19.4063H30.6835C30.8332 19.4062 30.9813 19.375 31.1183 19.3146C31.2553 19.2543 31.3782 19.1661 31.4794 19.0557C32.2427 18.2204 32.8026 17.2199 33.1155 16.1325C34.3481 16.0042 35.53 15.5737 36.5562 14.879C37.2627 15.6261 38.1138 16.2215 39.0578 16.6292C40.0017 17.0368 41.0187 17.248 42.0469 17.25C43.9791 17.2549 45.8386 16.5136 47.2376 15.1807C48.5466 16.2984 50.1601 16.9987 51.8705 17.1916C53.5809 17.3845 55.3099 17.0611 56.8349 16.263C58.3599 15.4649 59.6112 14.2287 60.4277 12.7135C61.2443 11.1982 61.5886 9.4733 61.4165 7.76069C61.2444 6.04808 60.5637 4.42617 59.462 3.10371C58.3603 1.78124 56.888 0.818752 55.2347 0.340109C53.5813 -0.138534 51.8225 -0.111422 50.1847 0.417954C48.5469 0.947331 47.105 1.95475 46.0446 3.31054C44.8037 2.55297 43.3731 2.16376 41.9195 2.18827C40.4658 2.21277 39.0491 2.65 37.8345 3.44897C36.9232 2.48158 35.7726 1.77212 34.499 1.39242C33.2254 1.01271 31.8742 0.976245 30.582 1.28671C29.2898 1.59717 28.1025 2.24353 27.1404 3.16037C26.1784 4.0772 25.4756 5.23195 25.1033 6.50772C23.7179 6.64832 22.3984 7.17007 21.2915 8.01505C20.1846 8.86004 19.3334 9.99521 18.8325 11.2946C18.3316 12.594 18.2005 14.0067 18.4538 15.3761C18.7071 16.7454 19.3349 18.0178 20.2675 19.052C20.3686 19.1635 20.492 19.2527 20.6296 19.3137C20.7672 19.3747 20.9161 19.4062 21.0666 19.4063Z" fill="#00AAA3"/>
<path d="M26.9539 47.4376V43.5715L22.0098 48.5157H23.7196C24.0055 48.5157 24.2797 48.6293 24.4819 48.8315C24.6841 49.0337 24.7977 49.3079 24.7977 49.5938V53.4599L29.7419 48.5157H28.0321C27.7461 48.5157 27.4719 48.4021 27.2697 48.1999C27.0675 47.9977 26.9539 47.7235 26.9539 47.4376Z" fill="#00AAA3"/>
<path d="M34.5008 22.5867C34.4851 22.3109 34.3649 22.0513 34.1646 21.861C33.9643 21.6707 33.699 21.564 33.4227 21.5625H18.3289C18.0526 21.564 17.7873 21.6707 17.587 21.861C17.3866 22.0513 17.2664 22.3109 17.2508 22.5867C17.1969 23.557 17.1322 24.6675 17.0352 25.875H34.7164C34.6194 24.6675 34.5547 23.557 34.5008 22.5867Z" fill="#00AAA3"/>
<path d="M34.899 28.0312H16.8512C15.7623 39.6319 12.7112 58.1972 6.44727 64.6875H45.3029C39.039 58.1972 35.9879 39.6319 34.899 28.0312ZM33.1093 48.203L24.4843 56.828C24.2804 57.0291 24.0052 57.1415 23.7188 57.1406C23.5774 57.1443 23.4371 57.1148 23.3091 57.0544C23.1112 56.975 22.9416 56.8381 22.8224 56.6612C22.7032 56.4843 22.6399 56.2758 22.6407 56.0625V50.6719H19.4063C19.1931 50.6726 18.9845 50.6093 18.8076 50.4901C18.6308 50.371 18.4938 50.2014 18.4145 50.0034C18.3322 49.807 18.3098 49.5907 18.3501 49.3817C18.3904 49.1726 18.4915 48.9801 18.6409 48.8283L27.2659 40.2033C27.4176 40.054 27.6102 39.9528 27.8192 39.9125C28.0283 39.8723 28.2446 39.8946 28.441 39.9769C28.639 40.0562 28.8085 40.1932 28.9277 40.37C29.0469 40.5469 29.1102 40.7555 29.1095 40.9688V46.3594H32.3438C32.5571 46.3586 32.7657 46.4219 32.9425 46.5411C33.1194 46.6603 33.2564 46.8299 33.3357 47.0278C33.4179 47.2242 33.4403 47.4405 33.4 47.6496C33.3598 47.8587 33.2586 48.0512 33.1093 48.203Z" fill="#00AAA3"/>
</g>
<defs>
<clipPath id="clip0_196_302">
<rect width="69" height="69" fill="white"/>
</clipPath>
</defs>
</svg>
