<svg width="73" height="73" viewBox="0 0 73 73" fill="none" xmlns="http://www.w3.org/2000/svg">
<path d="M63.875 4.5625H9.125C5.35114 4.5625 2.28125 7.63239 2.28125 11.4062V53.6094C2.28125 56.5824 4.18997 59.1114 6.84375 60.0539C6.6523 62.7028 8.72831 65.0276 11.4062 65.0156L12.5469 65.0156V66.1562C12.5469 67.4138 13.5705 68.4375 14.8281 68.4375H23.9531C25.2107 68.4375 26.2344 67.4138 26.2344 66.1562V65.0156H46.7656V66.1562C46.7656 67.4138 47.7893 68.4375 49.0469 68.4375H58.1719C59.4295 68.4375 60.4531 67.4138 60.4531 66.1562V65.0156H61.5938C64.2716 65.0276 66.3478 62.7026 66.1562 60.0539C68.81 59.1114 70.7188 56.5824 70.7188 53.6094V11.4062C70.7188 7.63239 67.6489 4.5625 63.875 4.5625ZM61.5938 62.7344H11.4062C10.1487 62.7344 9.125 61.7107 9.125 60.4531H63.875C63.875 61.7107 62.8513 62.7344 61.5938 62.7344ZM68.4375 53.6094C68.4375 56.1257 66.3913 58.1719 63.875 58.1719H9.125C6.60872 58.1719 4.5625 56.1257 4.5625 53.6094V11.4062C4.5625 8.88997 6.60872 6.84375 9.125 6.84375H17.1094C17.1094 8.73069 18.6443 10.2656 20.5312 10.2656H52.4688C54.3557 10.2656 55.8906 8.73069 55.8906 6.84375H63.875C66.3913 6.84375 68.4375 8.88997 68.4375 11.4062V53.6094Z" fill="#00AAA3"/>
<path d="M62.7344 11.4062H10.2656C8.37869 11.4062 6.84375 12.9412 6.84375 14.8281V45.625C6.84375 47.5119 8.37869 49.0469 10.2656 49.0469H62.7344C64.6213 49.0469 66.1562 47.5119 66.1562 45.625V14.8281C66.1562 12.9412 64.6213 11.4062 62.7344 11.4062ZM59.3125 33.0781H44.4844C43.9932 33.0781 43.5576 32.764 43.4028 32.2984L42.1062 28.4087L38.6999 36.9233C38.3279 37.9608 36.6862 37.8099 36.5201 36.7105C36.5201 36.7105 34.2845 24.7919 34.2845 24.7919L31.9219 38.9684C31.7719 40.0859 30.1073 40.2602 29.732 39.1911C29.732 39.1912 25.0369 26.9818 25.0369 26.9818L22.7201 32.3864C22.5407 32.8063 22.1286 33.0781 21.6719 33.0781H12.5469C11.9164 33.0781 11.4062 32.568 11.4062 31.9375C11.4062 31.307 11.9164 30.7969 12.5469 30.7969H20.92L24.0456 23.5042C24.432 22.5988 25.8312 22.6009 26.1586 23.5432L30.3591 34.4672L33.0937 18.0629C33.2836 16.827 35.1245 16.8054 35.3393 18.0395C35.3393 18.0395 38.0383 32.4332 38.0383 32.4332L41.1438 24.6705C41.5039 23.7132 42.9932 23.7402 43.2847 24.7329C43.2847 24.7329 45.3064 30.7969 45.3064 30.7969H59.3125C60.8108 30.8212 60.8126 33.0535 59.3125 33.0781Z" fill="#00AAA3"/>
<path d="M49.0478 50.1875C44.5357 50.3058 44.5366 56.9136 49.0479 57.0312C53.56 56.913 53.5591 50.3051 49.0478 50.1875Z" fill="#00AAA3"/>
<path d="M59.3135 50.1875C54.8013 50.3058 54.8022 56.9136 59.3135 57.0312C63.8256 56.913 63.8247 50.3051 59.3135 50.1875Z" fill="#00AAA3"/>
<path d="M13.6885 50.1875C9.1763 50.3058 9.1772 56.9136 13.6885 57.0312C18.2006 56.913 18.1997 50.3051 13.6885 50.1875Z" fill="#00AAA3"/>
</svg>
