<svg width="83" height="83" viewBox="0 0 83 83" fill="none" xmlns="http://www.w3.org/2000/svg">
<path d="M30.931 30.9012C31.4078 30.4244 31.4078 29.652 30.931 29.1752C25.1016 23.3464 25.1016 13.8607 30.931 8.03187C33.75 5.21283 37.5042 3.65968 41.5027 3.65968C45.5006 3.65968 49.2553 5.21283 52.0744 8.03187C57.9032 13.8607 57.9032 23.3464 52.0744 29.1752C51.5976 29.652 51.5976 30.4244 52.0744 30.9012C52.3128 31.1396 52.6251 31.2588 52.9374 31.2588C53.2497 31.2588 53.562 31.1396 53.8004 30.9012C60.5809 24.12 60.5809 13.0871 53.8004 6.30588C50.52 3.02555 46.1526 1.21851 41.5027 1.21851C36.8522 1.21851 32.4848 3.02555 29.205 6.30588C22.4238 13.0871 22.4238 24.12 29.205 30.9012C29.6818 31.378 30.4542 31.378 30.931 30.9012Z" fill="#00AAA3"/>
<path d="M47.4997 26.3275C47.7381 26.5659 48.0504 26.6851 48.3627 26.6851C48.675 26.6851 48.9873 26.5659 49.2257 26.3275C53.4846 22.0686 53.4846 15.1384 49.2257 10.8794C44.9673 6.62048 38.0377 6.6181 33.7782 10.8794C29.5192 15.1384 29.5192 22.0686 33.7782 26.3275C34.255 26.8043 35.0274 26.8043 35.5042 26.3275C35.981 25.8507 35.981 25.0783 35.5042 24.6015C32.197 21.2938 32.197 15.9132 35.5042 12.6054C37.1038 11.0058 39.2333 10.1249 41.5016 10.1249C43.7706 10.1249 45.9 11.0058 47.4997 12.6054C50.8068 15.9132 50.8068 21.2938 47.4997 24.6015C47.0229 25.0783 47.0229 25.8507 47.4997 26.3275Z" fill="#00AAA3"/>
<path d="M63.6298 71.4185L44.198 22.1189C45.2599 21.3011 45.9557 20.0439 45.9557 18.6036C45.9557 16.1502 43.9539 14.1484 41.5005 14.1484C39.0471 14.1484 37.0454 16.1502 37.0454 18.6036C37.0454 20.0439 37.7411 21.3011 38.8031 22.1189L19.3712 71.4185C19.1271 72.0531 19.4322 72.7611 20.0548 73.0052C20.2012 73.0663 20.3599 73.0907 20.5064 73.0907C20.9946 73.0907 21.4585 72.7978 21.6416 72.3095L24.3757 65.3888L40.2799 76.0689V80.5607C40.2799 81.232 40.8292 81.7813 41.5005 81.7813C42.1718 81.7813 42.7211 81.232 42.7211 80.5607V76.0689L58.6254 65.3888L61.3595 72.3095C61.5425 72.7978 62.0064 73.0907 62.4946 73.0907C62.6411 73.0907 62.7998 73.0663 62.9462 73.0052C63.5688 72.7611 63.8739 72.0531 63.6298 71.4185ZM40.2799 73.1273L25.2911 63.0696L27.2928 57.9798L40.2799 65.8648V73.1273ZM40.2799 52.9388L31.1255 48.2639L33.1761 43.0398L40.2799 45.5542V52.9388ZM40.2799 35.4722L36.8989 33.6046L40.2799 25.0239V35.4722ZM42.7211 25.0239L46.1021 33.6046L42.7211 35.4722V25.0239ZM42.7211 45.5542L49.8249 43.0398L51.8755 48.2639L42.7211 52.9388V45.5542ZM42.7211 73.1273V65.8648L55.7082 57.9798L57.7099 63.0696L42.7211 73.1273Z" fill="#00AAA3"/>
</svg>
