<svg width="75" height="75" viewBox="0 0 75 75" fill="none" xmlns="http://www.w3.org/2000/svg">
<path fill-rule="evenodd" clip-rule="evenodd" d="M19.4404 14.1475C23.46 15.1509 26.4468 18.791 26.4468 23.1152C26.4468 23.439 26.4292 23.7627 26.3955 24.082C26.3457 24.564 25.915 24.9141 25.4316 24.8643C24.9482 24.8145 24.5981 24.3823 24.6479 23.9004C24.6743 23.6411 24.689 23.3774 24.689 23.1152C24.689 18.9888 21.3301 15.6299 17.2021 15.6299C13.0742 15.6299 9.7168 18.9888 9.7168 23.1152C9.7168 27.2432 13.0742 30.6021 17.2021 30.6021H57.0503C61.1768 30.6021 64.5386 27.2432 64.5386 23.1152C64.5386 18.9888 61.1768 15.6299 57.0503 15.6299C56.7837 15.6299 56.52 15.6445 56.2564 15.6724C56.3223 16.1162 56.3574 16.5703 56.3574 17.0317C56.3574 19.1455 55.625 21.2124 54.2964 22.8516C52.9868 24.4658 51.1543 25.6025 49.1372 26.0537C49.0728 26.0684 49.0083 26.0757 48.9453 26.0757C48.5425 26.0757 48.1792 25.7974 48.0884 25.3872C47.9814 24.9141 48.2803 24.4438 48.7534 24.3384C52.1401 23.5811 54.5996 20.5093 54.5996 17.0317C54.5996 12.9053 51.2407 9.54639 47.1128 9.54639C46.1372 9.54639 45.1689 9.74121 44.2725 10.1074C44.9565 11.502 45.4209 13.0283 45.6128 14.6484C45.6699 15.1304 45.3257 15.5669 44.8423 15.624C44.3618 15.6812 43.9238 15.3369 43.8667 14.855C43.1328 8.64844 37.8594 3.96973 31.6001 3.96973C25.5781 3.96973 20.4761 8.29688 19.4404 14.1475ZM36.2466 37.2349H18.3066C14.6226 37.2349 11.6255 40.2319 11.6255 43.916V49.7183C11.6255 50.2031 12.0195 50.5972 12.5044 50.5972C12.9907 50.5972 13.3833 50.2031 13.3833 49.7183V43.916C13.3833 41.2017 15.5923 38.9927 18.3066 38.9927H36.2466V49.7183C36.2466 50.2031 36.6406 50.5972 37.1255 50.5972C37.6118 50.5972 38.0044 50.2031 38.0044 49.7183V38.9927H55.9458C58.6602 38.9927 60.8677 41.2017 60.8677 43.916V49.7183C60.8677 50.2031 61.2617 50.5972 61.7466 50.5972C62.2329 50.5972 62.624 50.2031 62.624 49.7183V43.916C62.624 40.2319 59.6284 37.2349 55.9458 37.2349H38.0044V32.3599H36.2466V37.2349ZM56.8804 54.7148C55.3291 54.7148 54.0679 55.9761 54.0679 57.5273V57.9873H51.5996C51.1133 57.9873 50.7207 58.3813 50.7207 58.8662C50.7207 59.3511 51.1133 59.7451 51.5996 59.7451H54.0679V61.1851H51.5996C51.1133 61.1851 50.7207 61.5791 50.7207 62.064C50.7207 62.5503 51.1133 62.9429 51.5996 62.9429H54.0679V64.3843H51.5996C51.1133 64.3843 50.7207 64.7783 50.7207 65.2632C50.7207 65.748 51.1133 66.1421 51.5996 66.1421H54.0679V66.6021C54.0679 68.1533 55.3291 69.4146 56.8804 69.4146H57.6377V71.8828C57.6377 72.3691 58.0317 72.7617 58.5166 72.7617C59.0015 72.7617 59.3955 72.3691 59.3955 71.8828V69.4146H60.8369V71.8828C60.8369 72.3691 61.2295 72.7617 61.7158 72.7617C62.2007 72.7617 62.5933 72.3691 62.5933 71.8828V69.4146H64.0347V71.8828C64.0347 72.3691 64.4302 72.7617 64.9136 72.7617C65.3984 72.7617 65.7925 72.3691 65.7925 71.8828V69.4146H66.5469C68.1025 69.4146 69.3638 68.1533 69.3638 66.6021V66.1421H71.8291C72.314 66.1421 72.708 65.748 72.708 65.2632C72.708 64.7783 72.3125 64.3843 71.8291 64.3843H69.3638V62.9429H71.8291C72.314 62.9429 72.708 62.5503 72.708 62.064C72.708 61.5791 72.3125 61.1851 71.8291 61.1851H69.3638V59.7451H71.8291C72.314 59.7451 72.708 59.3511 72.708 58.8662C72.708 58.3813 72.3125 57.9873 71.8291 57.9873H69.3638V57.5273C69.3638 55.9761 68.1011 54.7148 66.5469 54.7148H65.7925V52.2466C65.7925 51.7603 65.397 51.3677 64.9136 51.3677C64.4287 51.3677 64.0347 51.7603 64.0347 52.2466V54.7148H62.5933V52.2466C62.5933 51.7603 62.1992 51.3677 61.7158 51.3677C61.2295 51.3677 60.8369 51.7603 60.8369 52.2466V54.7148H59.3955V52.2466C59.3955 51.7603 59.0015 51.3677 58.5166 51.3677C58.0317 51.3677 57.6377 51.7603 57.6377 52.2466V54.7148H56.8804ZM59.3252 57.9873H64.1079C65.1187 57.9873 65.939 58.8105 65.939 59.8213V64.3066C65.939 65.3188 65.1187 66.1421 64.1079 66.1421H59.3252C58.3145 66.1421 57.4912 65.3188 57.4912 64.3066V59.8213C57.4912 58.8105 58.3145 57.9873 59.3252 57.9873ZM59.3252 59.7451H64.1079C64.1431 59.7451 64.1856 59.7817 64.1856 59.8213V64.3066C64.1856 64.3477 64.1431 64.3843 64.1079 64.3843H59.3252C59.2856 64.3843 59.249 64.3477 59.249 64.3066V59.8213C59.249 59.7817 59.2856 59.7451 59.3252 59.7451ZM29.0044 66.4673H45.2481V54.9976C45.2481 54.1289 44.5405 53.4229 43.6719 53.4229H30.5806C29.7119 53.4229 29.0044 54.1289 29.0044 54.9976V66.4673ZM27.4429 68.2251V69.6152C27.4429 70.3813 28.0654 71.0039 28.8315 71.0039H45.4194C46.1855 71.0039 46.8096 70.3813 46.8096 69.6152V68.2251H27.4429ZM38.3765 69.6138C38.3765 69.1289 38.7705 68.7349 39.2554 68.7349H40.5562C41.041 68.7349 41.4351 69.1289 41.4351 69.6138C41.4351 70.1001 41.041 70.4927 40.5562 70.4927H39.2554C38.7705 70.4927 38.3765 70.1001 38.3765 69.6138ZM42.6333 69.6138C42.6333 69.1289 43.0273 68.7349 43.5122 68.7349H44.813C45.2979 68.7349 45.6919 69.1289 45.6919 69.6138C45.6919 70.1001 45.2979 70.4927 44.813 70.4927H43.5122C43.0273 70.4927 42.6333 70.1001 42.6333 69.6138ZM20.6123 66.5142H4.39648C4.10791 66.5142 3.86328 66.7588 3.86328 67.0488V70.4692C3.86328 70.7593 4.10791 71.0039 4.39648 71.0039H20.6123C20.9023 71.0039 21.147 70.7593 21.147 70.4692V67.0488C21.147 66.7588 20.9023 66.5142 20.6123 66.5142ZM17.3765 69.6753C16.8916 69.6753 16.4976 69.2812 16.4976 68.7964C16.4976 68.3115 16.8916 67.9175 17.3765 67.9175H18.9395C19.4243 67.9175 19.8184 68.3115 19.8184 68.7964C19.8184 69.2812 19.4243 69.6753 18.9395 69.6753H17.3765ZM14.5376 68.7217C14.5376 69.2065 14.1436 69.6006 13.6587 69.6006H6.0708C5.58594 69.6006 5.19189 69.2065 5.19189 68.7217C5.19189 68.2368 5.58594 67.8428 6.0708 67.8428H13.6587C14.1436 67.8428 14.5376 68.2368 14.5376 68.7217ZM20.6123 60.2651H4.39648C4.10791 60.2651 3.86328 60.5098 3.86328 60.7998V64.2217C3.86328 64.5117 4.10791 64.7563 4.39648 64.7563H20.6123C20.9023 64.7563 21.147 64.5117 21.147 64.2217V60.7998C21.147 60.5098 20.9023 60.2651 20.6123 60.2651ZM16.4976 62.5474C16.4976 62.0625 16.8916 61.6685 17.3765 61.6685H18.9395C19.4243 61.6685 19.8184 62.0625 19.8184 62.5474C19.8184 63.0337 19.4243 63.4263 18.9395 63.4263H17.3765C16.8916 63.4263 16.4976 63.0337 16.4976 62.5474ZM6.0708 61.5952H13.6587C14.1436 61.5952 14.5376 61.9878 14.5376 62.4741C14.5376 62.959 14.1436 63.353 13.6587 63.353H6.0708C5.58594 63.353 5.19189 62.959 5.19189 62.4741C5.19189 61.9878 5.58594 61.5952 6.0708 61.5952ZM20.6123 54.0176H4.39648C4.10791 54.0176 3.86328 54.2622 3.86328 54.5522V57.9727C3.86328 58.2627 4.10791 58.5073 4.39648 58.5073H20.6123C20.9023 58.5073 21.147 58.2627 21.147 57.9727V54.5522C21.147 54.2622 20.9023 54.0176 20.6123 54.0176ZM17.3765 55.4209H18.9395C19.4243 55.4209 19.8184 55.8149 19.8184 56.2998C19.8184 56.7847 19.4243 57.1787 18.9395 57.1787H17.3765C16.8916 57.1787 16.4976 56.7847 16.4976 56.2998C16.4976 55.8149 16.8916 55.4209 17.3765 55.4209ZM6.0708 55.3462H13.6587C14.1436 55.3462 14.5376 55.7402 14.5376 56.2251C14.5376 56.71 14.1436 57.104 13.6587 57.104H6.0708C5.58594 57.104 5.19189 56.71 5.19189 56.2251C5.19189 55.7402 5.58594 55.3462 6.0708 55.3462ZM46.2339 20.8345C46.2339 20.3496 46.6279 19.9556 47.1128 19.9556C48.7256 19.9556 50.0366 18.6445 50.0366 17.0317C50.0366 16.5469 50.4307 16.1528 50.9155 16.1528C51.4019 16.1528 51.7944 16.5469 51.7944 17.0317C51.7944 19.6143 49.6953 21.7134 47.1128 21.7134C46.6279 21.7134 46.2339 21.3208 46.2339 20.8345ZM21.7314 24.3047C21.6274 24.7002 21.2715 24.9609 20.8818 24.9609C20.8086 24.9609 20.7324 24.9521 20.6577 24.9316C20.189 24.8101 19.9077 24.3296 20.0308 23.8594C20.0938 23.6177 20.126 23.3687 20.126 23.1152C20.126 21.9785 19.458 20.9355 18.4253 20.4595C17.9844 20.2559 17.791 19.7344 17.9946 19.2935C18.1982 18.8525 18.7212 18.6592 19.1606 18.8628C20.8145 19.626 21.8838 21.2959 21.8838 23.1152C21.8838 23.5181 21.8325 23.918 21.7314 24.3047ZM31.6001 7.4165C31.1152 7.4165 30.7212 7.02393 30.7212 6.5376C30.7212 6.05273 31.1152 5.65869 31.6001 5.65869C35.6914 5.65869 39.4722 8.04639 41.2314 11.7422C41.4409 12.1802 41.2549 12.7046 40.8169 12.9126C40.6939 12.9712 40.5664 12.999 40.439 12.999C40.1108 12.999 39.7959 12.813 39.645 12.498C38.1743 9.41162 35.0176 7.4165 31.6001 7.4165Z" fill="#00AAA3"/>
</svg>
