<svg width="77" height="77" viewBox="0 0 77 77" fill="none" xmlns="http://www.w3.org/2000/svg">
<g clip-path="url(#clip0_196_218)">
<path d="M74.5195 73.27H69.9221L66.0247 35.2617C66.658 35.2276 67.1617 34.7047 67.1617 34.0628V28.5251C67.1617 27.8612 66.6234 27.3229 65.9594 27.3229H51.6654C51.0014 27.3229 50.4632 27.8612 50.4632 28.5251V34.0628C50.4632 34.7048 50.9669 35.2277 51.6003 35.2617L47.7068 73.27H41.0633V58.09C41.3578 57.3088 41.5978 56.5024 41.7825 55.6763H42.9476C45.1383 55.6763 46.9207 53.8939 46.9207 51.7032C46.9207 49.5124 45.1383 47.7299 42.9476 47.7299H41.7843C40.5637 42.2746 36.8134 37.5989 31.736 35.2175V30.4561C31.736 29.7922 31.1977 29.2539 30.5337 29.2539H17.5183C16.8544 29.2539 16.3161 29.7922 16.3161 30.4561V35.2175C11.24 37.5983 7.48818 42.274 6.264 47.7299H5.10012C2.90938 47.7299 1.12695 49.5124 1.12695 51.7032C1.12695 53.8939 2.90938 55.6763 5.10012 55.6763H6.26505C6.44988 56.5023 6.68975 57.3087 6.98422 58.0898V73.27H2.32918C1.6652 73.27 1.12695 73.8082 1.12695 74.4722C1.12695 75.1361 1.6652 75.6744 2.32918 75.6744H74.5195C75.1835 75.6744 75.7218 75.1361 75.7218 74.4722C75.7218 73.8082 75.1835 73.27 74.5195 73.27ZM18.7207 31.6585H29.3314V34.796H18.7207V31.6585ZM5.10012 53.2721C4.23508 53.2721 3.5314 52.5684 3.5314 51.7033C3.5314 50.8383 4.23508 50.1344 5.10012 50.1344H7.25251C7.25251 50.1344 7.25372 50.1344 7.25432 50.1344H7.25748H42.9473C43.8123 50.1344 44.516 50.8383 44.516 51.7033C44.516 52.5684 43.8123 53.2721 42.9473 53.2721H5.10012ZM13.8607 73.2701H9.38881V62.4948C10.6241 64.1641 12.1374 65.6182 13.8607 66.7854V73.2701ZM19.3854 73.2701H16.2651V68.16C17.2594 68.6316 18.3029 69.0143 19.3854 69.2996V73.2701ZM26.2574 68.3468V73.2701H21.7899V62.0711C21.7899 60.8394 22.7919 59.8372 24.0238 59.8372C25.2556 59.8372 26.2575 60.8392 26.2575 62.0711L26.2574 68.3468ZM31.7823 73.2701H28.6618V69.2998C29.7443 69.0145 30.7879 68.6317 31.7823 68.1601V73.2701ZM38.6586 73.2701H34.1869V66.7853C35.91 65.6181 37.4234 64.1639 38.6586 62.4948V73.2701ZM52.8673 29.7275H64.7569V32.8607H52.8673V29.7275ZM56.422 8.96637C55.4256 7.96627 54.1636 7.26335 52.8 6.937C52.475 5.56258 51.7833 4.32396 50.7724 3.31694C49.333 1.875 47.4182 1.08094 45.3809 1.08094C43.3436 1.08094 41.4285 1.87471 39.987 3.3162C38.961 4.34216 38.2602 5.62109 37.945 7.01265C36.2495 6.81895 34.5256 7.39614 33.277 8.64078C32.2017 9.71607 31.6099 11.1454 31.6108 12.6655C31.6117 14.1834 32.2038 15.6094 33.277 16.6799C34.3517 17.7546 35.7795 18.3461 37.2982 18.3461H37.3016C38.0474 18.3456 38.7711 18.2025 39.4412 17.9297C39.7522 19.3346 40.4576 20.6376 41.4962 21.6762C44.976 25.1565 49.7388 23.3673 53.26 21.7354C53.4636 22.0374 53.6978 22.3209 53.9613 22.5844C55.036 23.6591 56.4638 24.2506 57.9824 24.2506H57.9859C59.5038 24.2497 60.9299 23.6576 62.0004 22.5844C63.0757 21.5091 63.6675 20.0798 63.6666 18.5596C63.6657 17.0417 63.0736 15.6156 62.0024 14.5469C61.0522 13.5925 59.8232 13.0211 58.5135 12.9009C58.2265 11.4129 57.5042 10.045 56.422 8.96637ZM53.4238 16.9568C53.2411 17.4365 52.7845 17.7316 52.2999 17.7316C52.1578 17.7316 52.0133 17.7062 51.8725 17.6526C51.252 17.4164 50.9405 16.722 51.1767 16.1015C51.3343 15.6875 51.2974 15.2294 51.0754 14.8447C50.8547 14.4618 50.4761 14.2018 50.0368 14.1308C49.3814 14.0251 48.9358 13.4079 49.0416 12.7525C49.1473 12.0972 49.7642 11.6522 50.4199 11.7572C51.5764 11.9436 52.5747 12.6312 53.1584 13.6437C53.7429 14.657 53.8395 15.8646 53.4238 16.9568ZM46.1171 15.601C45.9345 16.0806 45.4779 16.3758 44.9932 16.3758C44.8512 16.3758 44.7067 16.3504 44.5658 16.2969C43.9453 16.0608 43.6338 15.3662 43.8699 14.7457C44.0275 14.3319 43.9905 13.8738 43.7687 13.4892C43.5478 13.1062 43.1693 12.8462 42.73 12.7752C42.0746 12.6694 41.629 12.0522 41.7347 11.3968C41.8404 10.7416 42.4566 10.2961 43.113 10.4016C44.2695 10.588 45.2678 11.2756 45.8515 12.288C46.4359 13.3012 46.5327 14.5087 46.1171 15.601ZM7.18048 -22.9468H34.8475V-17.5669C34.8475 -16.9029 35.3858 -16.3647 36.0498 -16.3647H73.4921C74.156 -16.3647 74.6943 -16.9029 74.6943 -17.5669V-27.9688C74.6943 -34.6259 68.5726 -40.0417 61.0483 -40.0417H60.0593C59.8127 -40.0417 59.6115 -40.2288 59.5868 -40.467C63.0532 -42.2295 65.435 -45.8282 65.435 -49.9746V-50.6018C67.2069 -50.8134 68.5854 -52.3244 68.5854 -54.1523C68.5854 -55.9801 67.2068 -57.4952 65.435 -57.7069V-59.0377C65.435 -61.3676 64.6963 -63.5813 63.2987 -65.4397C62.1307 -66.9929 60.5352 -68.2109 58.7421 -68.9351V-69.593C58.7421 -71.7815 56.9596 -73.562 54.7689 -73.562C54.2003 -73.562 53.6597 -73.4409 53.1702 -73.2245V-80.6258C53.1702 -83.3972 50.9135 -85.6519 48.1398 -85.6519H40.9611V-86.4747C40.9611 -87.1387 40.4228 -87.6769 39.7588 -87.6769H36.3612V-89.7573C36.3612 -90.4212 35.823 -90.9595 35.159 -90.9595H20.166C19.502 -90.9595 18.9637 -90.4212 18.9637 -89.7573V-87.6769H15.5661C14.9021 -87.6769 14.3639 -87.1387 14.3639 -86.4747V-85.6519H7.18048C4.40908 -85.6519 2.15427 -83.3972 2.15427 -80.6258V-27.9772C2.15427 -25.2036 4.40908 -22.9468 7.18048 -22.9468ZM36.4931 -38.3704H27.7667C27.1027 -38.3704 26.5645 -38.9087 26.5645 -39.5727C26.5645 -40.2366 27.1027 -40.7749 27.7667 -40.7749H36.4931C37.1571 -40.7749 37.6953 -40.2366 37.6953 -39.5727C37.6953 -38.9087 37.1571 -38.3704 36.4931 -38.3704ZM32.5073 -33.5534C32.5073 -32.8894 31.9691 -32.3512 31.3051 -32.3512H27.7667C27.1027 -32.3512 26.5645 -32.8894 26.5645 -33.5534C26.5645 -34.2174 27.1027 -34.7556 27.7667 -34.7556H31.3051C31.9691 -34.7556 32.5073 -34.2174 32.5073 -33.5534ZM26.5643 -49.2115C26.5643 -49.8755 27.1026 -50.4137 27.7665 -50.4137H36.2373C36.9013 -50.4137 37.4395 -49.8755 37.4395 -49.2115C37.4395 -48.5475 36.9013 -48.0093 36.2373 -48.0093H27.7665C27.1026 -48.0093 26.5643 -48.5475 26.5643 -49.2115ZM38.2196 -54.0288H27.7665C27.1026 -54.0288 26.5643 -54.5671 26.5643 -55.231C26.5643 -55.895 27.1026 -56.4332 27.7665 -56.4332H38.2196C38.8836 -56.4332 39.4218 -55.895 39.4218 -55.231C39.4218 -54.5671 38.8836 -54.0288 38.2196 -54.0288ZM26.5643 -64.8697C26.5643 -65.5337 27.1026 -66.0719 27.7665 -66.0719H38.066C38.73 -66.0719 39.2683 -65.5337 39.2683 -64.8697C39.2683 -64.2057 38.73 -63.6675 38.066 -63.6675H27.7665C27.1026 -63.6675 26.5643 -64.2057 26.5643 -64.8697ZM51.4495 -32.2939L48.2737 -36.2012L48.8068 -37.062L52.958 -33.7909L51.4496 -32.2939H51.4495ZM48.2251 -40.0389V-41.5662C48.763 -41.1466 49.3419 -40.7777 49.955 -40.466C49.9299 -40.2284 49.729 -40.0419 49.4827 -40.0419H48.4935C48.4038 -40.0419 48.3144 -40.0404 48.2251 -40.0389ZM51.218 -38.2232C51.6815 -38.5739 52.0363 -39.0595 52.2208 -39.6227C53.0377 -39.4217 53.8906 -39.3128 54.7687 -39.3128C55.6469 -39.3128 56.5024 -39.4218 57.3207 -39.6235C57.5051 -39.0603 57.8597 -38.5747 58.3231 -38.2238L54.769 -35.4249L51.218 -38.2232ZM60.7347 -37.0626L61.2682 -36.2013L58.0916 -32.2934L56.5806 -33.7912L60.7347 -37.0626ZM63.0304 -49.9747C63.0304 -45.4215 59.3242 -41.7172 54.7687 -41.7172C53.66 -41.7172 52.6027 -41.9383 51.6359 -42.3362C51.6283 -42.3395 51.6205 -42.3422 51.6128 -42.3454C48.6211 -43.5875 46.5112 -46.5389 46.5112 -49.9749V-50.5758H63.0304V-49.9747ZM53.2044 -68.0772V-69.5933C53.2044 -70.456 53.9061 -71.1578 54.7687 -71.1578C55.6314 -71.1578 56.3375 -70.456 56.3375 -69.5933V-65.194C56.3375 -64.3289 55.6338 -63.6251 54.7687 -63.6251C53.9037 -63.6251 53.2044 -64.3289 53.2044 -65.194V-68.0774V-68.0772ZM65.0085 -55.3292C65.6551 -55.3292 66.1808 -54.8014 66.1808 -54.1526C66.1808 -53.517 65.6441 -52.9803 65.0085 -52.9803H44.5333C43.8977 -52.9803 43.361 -53.517 43.361 -54.1526C43.361 -54.8014 43.8868 -55.3292 44.5333 -55.3292H65.0085ZM40.9609 -83.2479H48.1397C49.5876 -83.2479 50.7656 -82.0718 50.7656 -80.6261V-68.9242C49.8407 -68.5519 48.9885 -68.0613 48.2249 -67.4718V-79.5048C48.2249 -80.1688 47.6867 -80.707 47.0227 -80.707H40.9608V-83.2479H40.9609ZM40.4705 -72.0873C41.1345 -72.0873 41.6727 -71.549 41.6727 -70.885C41.6727 -70.2211 41.1345 -69.6828 40.4705 -69.6828H27.7665C27.1026 -69.6828 26.5643 -70.2211 26.5643 -70.885C26.5643 -71.549 27.1026 -72.0873 27.7665 -72.0873H40.4705ZM16.7682 -85.2728H20.1658C20.8298 -85.2728 21.368 -85.811 21.368 -86.475V-88.5553H33.9566V-86.475C33.9566 -85.811 34.4949 -85.2728 35.1588 -85.2728H38.5565V-79.944H16.7682V-85.2728ZM15.6998 -69.7571L16.7383 -68.7187L20.9826 -72.963C21.4519 -73.4325 22.2134 -73.4325 22.6827 -72.963C23.1523 -72.4935 23.1523 -71.7323 22.6827 -71.2628L17.5884 -66.1685C17.3537 -65.9337 17.0461 -65.8164 16.7384 -65.8164C16.4307 -65.8164 16.123 -65.9337 15.8884 -66.1685L13.9998 -68.0571C13.5303 -68.5266 13.5303 -69.2877 13.9998 -69.7573C14.4692 -70.2268 15.2306 -70.2268 15.7 -69.7573L15.6998 -69.7571ZM22.683 -55.6093L17.5887 -50.5107C17.3634 -50.2851 17.0575 -50.1584 16.7387 -50.1582H16.7384C16.4196 -50.1582 16.1138 -50.285 15.8884 -50.5104L13.9998 -52.3989C13.5303 -52.8682 13.5303 -53.6295 13.9998 -54.099C14.4693 -54.5686 15.2303 -54.5686 15.7 -54.099L16.738 -53.0609L20.9824 -57.3087C21.4516 -57.7783 22.2128 -57.7788 22.6826 -57.3094C23.1523 -56.8401 23.1524 -56.0789 22.683 -55.6093ZM22.683 -39.951L17.5887 -34.8525C17.3634 -34.6269 17.0575 -34.5001 16.7387 -34.5H16.7384C16.4196 -34.5 16.1138 -34.6268 15.8884 -34.8522L13.9998 -36.7408C13.5303 -37.2103 13.5303 -37.9714 13.9998 -38.441C14.4693 -38.9105 15.2306 -38.9103 15.7 -38.441L16.7381 -37.403L20.9824 -41.6508C21.4516 -42.1203 22.2128 -42.1206 22.6826 -41.6514C23.1523 -41.1821 23.1526 -40.4209 22.6832 -39.9512L22.683 -39.951ZM4.55887 -80.6258C4.55887 -82.0715 5.73492 -83.2476 7.18063 -83.2476H14.3639V-80.7067H8.29743C7.63345 -80.7067 7.09521 -80.1685 7.09521 -79.5045V-29.0942C7.09521 -28.4302 7.63345 -27.892 8.29743 -27.892H34.8475V-25.3513H7.18048C5.73492 -25.3513 4.55872 -26.5293 4.55872 -27.9772L4.55887 -80.6258Z" fill="#00AAA3"/>
</g>
<defs>
<clipPath id="clip0_196_218">
<rect width="77" height="77" fill="white"/>
</clipPath>
</defs>
</svg>
