<svg width="74" height="74" viewBox="0 0 74 74" fill="none" xmlns="http://www.w3.org/2000/svg">
<g clip-path="url(#clip0_196_194)">
<path d="M60.2134 9.86976C60.2134 10.5079 59.6961 11.0251 59.058 11.0251H55.1003C54.4622 11.0251 53.9449 10.5079 53.9449 9.86976C53.9449 9.23165 54.4622 8.71438 55.1003 8.71438H59.058C59.6961 8.71438 60.2134 9.23165 60.2134 9.86976ZM72.7705 71.7624C72.7705 72.4005 72.2533 72.9178 71.6152 72.9178H2.23741C1.59931 72.9178 1.08203 72.4005 1.08203 71.7624C1.08203 71.1243 1.59931 70.607 2.23741 70.607H7.36249C7.35527 70.5287 7.3505 70.4496 7.3505 70.3694V67.0547C4.25319 66.8372 1.79905 64.2478 1.79905 61.0938V56.2552C1.79905 55.2411 2.17859 54.0135 3.4957 52.815C2.08493 52.2661 1.08218 50.8955 1.08218 49.2944C1.08218 47.2093 2.77854 45.5129 4.86369 45.5129H8.68654L9.16769 41.9378C9.7779 37.4034 17.7492 35.7936 24.39 35.7927H24.3949C30.9504 35.7927 38.8201 37.402 39.4317 41.9375L39.9127 45.5129H43.7357C45.8185 45.5129 47.513 47.2093 47.513 49.2944C47.513 50.8783 46.5326 52.2368 45.1473 52.7971C46.1969 53.7697 46.8 54.9155 46.8 56.2552V61.0938C46.8 64.2463 44.3463 66.8349 41.2487 67.0544V70.3694C41.2487 70.4496 41.2439 70.5287 41.2367 70.607H48.7626V35.754C47.6477 34.1386 46.9927 32.1826 46.9927 30.0758C46.9927 25.2002 50.4934 21.1283 55.1139 20.2348L59.5958 15.7529H50.1843C49.5462 15.7529 49.029 15.2356 49.029 14.5975V13.688H36.3335C35.647 15.0753 34.599 16.2523 33.3131 17.0965V23.0538C33.3131 23.6992 33.0729 24.2805 32.6183 24.7351L30.9261 26.4271C30.7095 26.6438 30.4157 26.7655 30.1093 26.7655H29.6054V29.9856C29.6054 30.6237 29.0881 31.141 28.45 31.141C27.8119 31.141 27.2947 30.6237 27.2947 29.9856V26.7655H26.7907C26.4847 26.7655 26.1913 26.6442 25.9746 26.4281L24.2786 24.7361C23.823 24.2805 23.5828 23.6991 23.5828 23.0538V16.937C23.5828 16.9271 23.5841 16.9174 23.5842 16.9076C21.3862 15.3397 19.9488 12.7704 19.9488 9.86976C19.9488 5.10543 23.8232 1.22925 28.5852 1.22925C31.9793 1.22925 34.9211 3.19733 36.3333 6.05139H49.0288V5.1459C49.0288 4.50779 49.5461 3.99052 50.1842 3.99052H67.9282C68.5663 3.99052 69.0835 4.50779 69.0835 5.1459V12.7455C69.7091 13.058 70.2962 13.4726 70.8175 13.9929C73.4248 16.6003 73.4251 20.845 70.8191 23.4561L66.7239 27.5477C66.9347 28.3557 67.0474 29.2028 67.0474 30.0759C67.0474 32.1832 66.3925 34.1394 65.2775 35.7552V70.6071H71.6154C72.2535 70.6071 72.7708 71.1244 72.7708 71.7625L72.7705 71.7624ZM34.9148 9.86976C34.9148 6.37947 32.0753 3.54001 28.585 3.54001C25.0947 3.54001 22.2593 6.37947 22.2593 9.86976C22.2593 13.36 25.0971 16.1995 28.585 16.1995C32.073 16.1995 34.9148 13.36 34.9148 9.86976ZM10.1856 63.0399C12.2844 63.0399 13.9917 61.3326 13.9917 59.2338C13.9917 57.1351 12.2844 55.4279 10.1856 55.4279C8.08688 55.4279 6.37953 57.1352 6.37953 59.2338C6.37953 61.3324 8.08688 63.0399 10.1856 63.0399ZM29.137 55.4762C25.0423 54.253 20.7137 54.253 16.619 55.4762C16.0076 55.6588 15.66 56.3024 15.8427 56.9138C16.0253 57.5252 16.6686 57.8729 17.2804 57.6901C20.9424 56.5963 24.8136 56.5963 28.4755 57.6901C28.5857 57.723 28.6972 57.7387 28.8066 57.7387C29.3041 57.7387 29.7635 57.4148 29.9131 56.9137C30.0958 56.3023 29.7482 55.6586 29.1368 55.476L29.137 55.4762ZM29.136 59.8841C25.042 58.6654 20.7141 58.6654 16.6202 59.8841C16.0086 60.0662 15.6605 60.7095 15.8424 61.321C15.9917 61.8227 16.4513 62.147 16.9492 62.147C17.0584 62.147 17.1694 62.1314 17.2794 62.0987C20.9419 61.0084 24.8141 61.0084 28.4766 62.0987C29.0883 62.2804 29.7316 61.9325 29.9136 61.321C30.0955 60.7095 29.7475 60.066 29.136 59.8841ZM39.311 59.2338C39.311 57.1351 37.6036 55.4279 35.5049 55.4279C33.4062 55.4279 31.6948 57.1352 31.6948 59.2338C31.6948 61.3324 33.404 63.0399 35.5049 63.0399C37.6058 63.0399 39.311 61.3326 39.311 59.2338ZM10.4627 49.6401C14.3322 48.6698 19.2445 48.1387 24.4587 48.1387C29.0816 48.1387 34.0518 48.5668 38.1283 49.5793L37.7574 46.8226C37.7555 46.808 37.7529 46.7937 37.7515 46.779L37.1417 42.2463C36.8233 39.8846 31.3438 38.1038 24.3954 38.1038H24.3903C17.4509 38.1047 11.7703 39.9243 11.4578 42.2465L10.4627 49.6403V49.6401ZM14.8972 67.0713H9.66126V70.3694C9.66126 70.4982 9.77009 70.607 9.89887 70.607H14.6636C14.7902 70.607 14.8972 70.4982 14.8972 70.3694V67.0713ZM31.3993 70.607C31.3921 70.5287 31.3873 70.4496 31.3873 70.3694V67.0713H17.2078V70.3694C17.2078 70.4496 17.203 70.5287 17.1958 70.607H31.3993ZM38.9379 67.0713H33.698V70.3694C33.698 70.4982 33.8068 70.607 33.9356 70.607H38.7003C38.8291 70.607 38.9379 70.4982 38.9379 70.3694V67.0713ZM61.9824 13.4423C63.3744 12.3599 65.0991 11.9033 66.7726 12.0747V6.30128H51.3394V13.4423H61.9824ZM62.9665 46.7095H60.2134V65.4899H62.9665V46.7095ZM64.7365 30.0758C64.7365 25.822 61.2757 22.3613 57.022 22.3613C52.7683 22.3613 49.3033 25.8221 49.3033 30.0758C49.3033 34.3295 52.766 37.7903 57.022 37.7903C61.278 37.7903 64.7365 34.3295 64.7365 30.0758ZM57.022 25.2661C54.3698 25.2661 52.2121 27.4238 52.2121 30.0758C52.2121 32.7278 54.3698 34.8857 57.022 34.8857C59.6741 34.8857 61.8276 32.728 61.8276 30.0758C61.8276 27.4237 59.6718 25.2661 57.022 25.2661Z" fill="#00AAA3"/>
</g>
<defs>
<clipPath id="clip0_196_194">
<rect width="74" height="73.1654" fill="white"/>
</clipPath>
</defs>
</svg>
