<svg width="71" height="71" viewBox="0 0 71 71" fill="none" xmlns="http://www.w3.org/2000/svg">
<g clip-path="url(#clip0_196_463)">
<path d="M58.9868 25.6905C58.0198 23.8922 56.1351 22.7789 54.094 22.8004L41.7734 22.8483V37.5424H65.3328L58.9868 25.6905Z" fill="#00AAA3"/>
<path d="M16.3896 43.3882C25.4416 43.3882 32.7792 36.05 32.7792 26.9987C32.7792 17.9467 25.4416 10.6091 16.3896 10.6091C7.33759 10.6091 0 17.9467 0 26.9987C0.0119844 36.045 7.34264 43.3756 16.3896 43.3882ZM8.96179 17.6811C11.9617 14.6762 16.4766 13.7748 20.4006 15.3978C24.3239 17.0201 26.8841 20.8469 26.8854 25.0931C26.8797 27.8874 25.7645 30.565 23.7852 32.5367L17.2941 39.0285C16.78 39.5236 15.967 39.5236 15.4529 39.0285L8.96179 32.5367C8.24967 31.8214 7.64603 31.0052 7.16918 30.1146C7.16918 30.1058 7.16224 30.0988 7.15341 30.0988C4.93378 26.0172 5.66987 20.9604 8.96179 17.6811Z" fill="#00AAA3"/>
<path d="M11.125 50.073C8.21784 50.073 5.86133 52.4295 5.86133 55.3373C5.86133 58.2445 8.21784 60.601 11.125 60.601C14.0328 60.601 16.3893 58.2445 16.3893 55.3373C16.3887 52.4301 14.0322 50.0736 11.125 50.073Z" fill="#00AAA3"/>
<path d="M20.0542 24.8175C20.0542 26.8511 18.4061 28.4992 16.3731 28.4992C14.3396 28.4992 12.6914 26.8511 12.6914 24.8175C12.6914 22.7846 14.3396 21.1364 16.3731 21.1364C18.4061 21.1364 20.0542 22.7846 20.0542 24.8175Z" fill="#00AAA3"/>
<path d="M61.748 50.073C58.8409 50.073 56.4844 52.4295 56.4844 55.3373C56.4844 58.2445 58.8409 60.601 61.748 60.601C64.6558 60.601 67.0123 58.2445 67.0123 55.3373C67.0117 52.4301 64.6552 50.0736 61.748 50.073Z" fill="#00AAA3"/>
<path d="M16.3893 45.9069C11.2549 45.9081 6.34132 43.8216 2.77692 40.126H0.435547V53.8512H3.42281C4.10087 50.2988 7.29818 47.4573 11.125 47.4573C14.9524 47.4573 18.1655 50.2988 18.8436 53.8512H39.1892V40.126H30.0016C26.4372 43.8216 21.5236 45.9081 16.3893 45.9069Z" fill="#00AAA3"/>
<path d="M10.7862 30.6962L16.357 36.267L21.9279 30.6962C23.4259 29.2101 24.2686 27.1873 24.2692 25.0767C24.28 22.9852 23.448 20.9768 21.96 19.5059C19.1847 16.7236 14.7871 16.4001 11.6345 18.7465C8.48139 21.0929 7.52895 25.3978 9.39725 28.8556C9.77949 29.5261 10.2463 30.1449 10.7862 30.6962ZM16.3728 18.5692C19.8287 18.5736 22.6267 21.3792 22.6223 24.8345C22.6179 28.2905 19.8123 31.0879 16.357 31.0834C12.9011 31.079 10.1037 28.2741 10.1081 24.8188C10.1201 21.366 12.9207 18.573 16.3728 18.5692Z" fill="#00AAA3"/>
<path d="M68.8367 40.126H41.7734V53.8512H54.0454C54.7235 50.2988 57.9208 47.4573 61.7476 47.4573C65.575 47.4573 68.7717 50.2988 69.4504 53.8512H71.0002V42.3059C70.9844 41.115 70.0276 40.1512 68.8367 40.126Z" fill="#00AAA3"/>
</g>
<defs>
<clipPath id="clip0_196_463">
<rect width="71" height="71" fill="white"/>
</clipPath>
</defs>
</svg>
