<svg width="84" height="84" viewBox="0 0 84 84" fill="none" xmlns="http://www.w3.org/2000/svg">
<path d="M47.6621 74.7844C46.1442 76.2056 44.1154 77 42.0039 77C39.8925 77 37.8636 76.2056 36.3457 74.7844C22.4456 61.6909 3.81767 47.0642 12.9019 25.8288C17.8137 14.347 29.6042 7 42.0039 7C54.4036 7 66.1941 14.347 71.1059 25.8288C80.1787 47.0374 61.5965 61.7361 47.6621 74.7844Z" fill="#00A7A1" stroke="white" stroke-width="1.5"/>
<path d="M54.25 38.5C54.25 45.2655 48.7655 50.75 42 50.75C35.2345 50.75 29.75 45.2655 29.75 38.5C29.75 31.7345 35.2345 26.25 42 26.25C48.7655 26.25 54.25 31.7345 54.25 38.5Z" stroke="white" stroke-width="1.5"/>
</svg>
