<svg width="63" height="63" viewBox="0 0 63 63" fill="none" xmlns="http://www.w3.org/2000/svg">
<g clip-path="url(#clip0_196_475)">
<path d="M31.4997 12.7972C21.1332 12.7972 12.7109 21.2334 12.7109 31.586C12.7109 41.938 21.1472 50.3742 31.4997 50.3742C41.8518 50.3742 50.288 41.938 50.288 31.586C50.288 21.2334 41.8663 12.7972 31.4997 12.7972ZM40.9223 27.0819L29.5834 37.7769C29.3739 37.9824 29.0907 38.0958 28.797 38.0919C28.4898 38.0947 28.1948 37.9707 27.982 37.7484L22.0481 31.6575C21.6135 31.2062 21.623 30.4884 22.0704 30.0494C22.5173 29.6104 23.2344 29.6132 23.6785 30.0556L28.826 35.3461L39.3495 25.423C39.8075 24.9885 40.5308 25.008 40.9654 25.466C41.3999 25.924 41.3804 26.6474 40.9223 27.0819Z" fill="#00AAA3"/>
<path d="M58.4816 38.4348L63.0002 31.586L58.4816 24.7366C58.3492 24.5333 58.2839 24.2931 58.2956 24.0501L58.7531 15.8429L51.4468 12.1398C51.2306 12.0309 51.0552 11.8555 50.9463 11.6393L47.2571 4.33247L39.0499 4.78992C38.807 4.80165 38.5668 4.73686 38.3635 4.60393L31.5001 0.0858765L24.6507 4.60393C24.4474 4.73686 24.2072 4.80165 23.9648 4.78992L15.757 4.33247L12.0539 11.6393C11.945 11.8555 11.7696 12.0309 11.5534 12.1398L4.2466 15.8284L4.70404 24.0362C4.71577 24.2786 4.65098 24.5188 4.51861 24.7226L0 31.586L4.51861 38.4348C4.65098 38.6387 4.71577 38.8783 4.70404 39.1213L4.2466 47.3285L11.5534 51.0177C11.7696 51.1266 11.945 51.302 12.0539 51.5181L15.7431 58.825L23.9503 58.367H24.0073C24.2301 58.3698 24.4485 58.434 24.6367 58.553L31.4856 63.0716L38.335 58.553C38.5383 58.4206 38.7785 58.3558 39.0209 58.367L47.2287 58.825L50.9178 51.5181C51.0267 51.302 51.2021 51.1266 51.4183 51.0177L58.7246 47.3285L58.2671 39.1213C58.2794 38.8778 58.3531 38.6415 58.4816 38.4348ZM31.5001 52.662C19.8752 52.662 10.4235 43.2104 10.4235 31.586C10.4235 19.961 19.8752 10.5094 31.5001 10.5094C43.125 10.5094 52.5761 19.961 52.5761 31.586C52.5761 43.2104 43.125 52.662 31.5001 52.662Z" fill="#00AAA3"/>
</g>
<defs>
<clipPath id="clip0_196_475">
<rect width="63" height="63" fill="white"/>
</clipPath>
</defs>
</svg>
