<svg width="64" height="64" viewBox="0 0 64 64" fill="none" xmlns="http://www.w3.org/2000/svg">
<g clip-path="url(#clip0_196_481)">
<path d="M56.4504 15.3447L32.7063 0.185637C32.3248 -0.0620419 31.8334 -0.0620419 31.4525 0.185637L7.6935 15.3447C7.35984 15.5583 7.15657 15.9255 7.1543 16.3218V29.4693C7.16853 40.2043 12.3698 50.2709 21.1183 56.4931L31.3944 63.7811C31.7935 64.0727 32.3356 64.0727 32.7353 63.7811L43.0114 56.4931C51.7679 50.2772 56.9766 40.2083 56.9896 29.4693V16.3218C56.9868 15.9255 56.7841 15.5583 56.4504 15.3447ZM41.6705 27.3996L30.1116 38.3021C29.8975 38.5116 29.6088 38.6272 29.3099 38.6232C28.9962 38.626 28.6956 38.4996 28.4792 38.273L22.4301 32.064C22.1335 31.7679 22.0185 31.3357 22.1295 30.9315C22.24 30.5278 22.5588 30.214 22.9648 30.111C23.3707 30.0074 23.8012 30.1298 24.0916 30.431L29.339 35.8241L40.0672 25.7086C40.5341 25.2656 41.2714 25.2855 41.7138 25.7524C42.1568 26.2193 42.1374 26.9566 41.6705 27.3996Z" fill="#00AAA3"/>
</g>
<defs>
<clipPath id="clip0_196_481">
<rect width="64" height="64" fill="white"/>
</clipPath>
</defs>
</svg>
