<svg width="63" height="63" viewBox="0 0 63 63" fill="none" xmlns="http://www.w3.org/2000/svg">
<path d="M52.3402 22.7957C51.4822 21.2 49.8099 20.2122 47.9987 20.2312L37.0664 20.2738V33.3122H57.9712L52.3402 22.7957Z" fill="#00AAA3"/>
<path d="M14.5429 38.4993C22.5749 38.4993 29.0857 31.9879 29.0857 23.9564C29.0857 15.9244 22.5749 9.41357 14.5429 9.41357C6.51082 9.41357 0 15.9244 0 23.9564C0.010634 31.9835 6.5153 38.4881 14.5429 38.4993ZM7.95201 15.6888C10.6139 13.0224 14.6201 12.2226 18.1019 13.6627C21.5832 15.1022 23.8549 18.4978 23.856 22.2656C23.851 24.745 22.8615 27.1209 21.1052 28.8705L15.3455 34.6308C14.8893 35.0701 14.1679 35.0701 13.7117 34.6308L7.95201 28.8705C7.32013 28.2358 6.78451 27.5116 6.36139 26.7213C6.36139 26.7135 6.35523 26.7073 6.34739 26.7073C4.37786 23.0856 5.03101 18.5986 7.95201 15.6888Z" fill="#00AAA3"/>
<path d="M9.87175 44.4312C7.29216 44.4312 5.20117 46.5221 5.20117 49.1023C5.20117 51.6819 7.29216 53.7729 9.87175 53.7729C12.4519 53.7729 14.5429 51.6819 14.5429 49.1023C14.5423 46.5227 12.4513 44.4317 9.87175 44.4312Z" fill="#00AAA3"/>
<path d="M17.7949 22.0212C17.7949 23.8256 16.3325 25.2881 14.5286 25.2881C12.7242 25.2881 11.2617 23.8256 11.2617 22.0212C11.2617 20.2173 12.7242 18.7549 14.5286 18.7549C16.3325 18.7549 17.7949 20.2173 17.7949 22.0212Z" fill="#00AAA3"/>
<path d="M54.7897 44.4312C52.2101 44.4312 50.1191 46.5221 50.1191 49.1023C50.1191 51.6819 52.2101 53.7729 54.7897 53.7729C57.3699 53.7729 59.4609 51.6819 59.4609 49.1023C59.4603 46.5227 57.3693 44.4317 54.7897 44.4312Z" fill="#00AAA3"/>
<path d="M14.5428 40.734C9.98701 40.7351 5.62706 38.8837 2.46427 35.6045H0.386719V47.7833H3.03739C3.63905 44.6311 6.4761 42.1097 9.87171 42.1097C13.2679 42.1097 16.1189 44.6311 16.7206 47.7833H34.7738V35.6045H26.6214C23.4586 38.8837 19.0987 40.7351 14.5428 40.734Z" fill="#00AAA3"/>
<path d="M9.57125 27.2375L14.5144 32.1806L19.4575 27.2375C20.7868 25.9188 21.5345 24.1239 21.5351 22.2512C21.5446 20.3953 20.8064 18.6133 19.4861 17.3081C17.0235 14.8393 13.1213 14.5522 10.324 16.6342C7.52616 18.7163 6.68103 22.5361 8.33882 25.6043C8.67799 26.1993 9.09216 26.7483 9.57125 27.2375ZM14.5284 16.477C17.5949 16.4809 20.0777 18.9704 20.0737 22.0363C20.0698 25.1028 17.5803 27.585 14.5144 27.5811C11.4479 27.5772 8.96567 25.0883 8.96959 22.0223C8.98022 18.9586 11.4652 16.4803 14.5284 16.477Z" fill="#00AAA3"/>
<path d="M61.0803 35.6045H37.0664V47.7833H47.9557C48.5573 44.6311 51.3944 42.1097 54.79 42.1097C58.1861 42.1097 61.0226 44.6311 61.6249 47.7833H63V37.5388C62.986 36.4821 62.137 35.6269 61.0803 35.6045Z" fill="#00AAA3"/>
</svg>
