<svg width="53" height="53" viewBox="0 0 53 53" fill="none" xmlns="http://www.w3.org/2000/svg">
<g clip-path="url(#clip0_196_381)">
<path d="M35.0401 17.2022C36.2107 17.2022 37.1602 16.2532 37.1602 15.0826C37.1602 13.9114 36.2107 12.9624 35.0401 12.9624C33.8694 12.9624 32.9199 13.9114 32.9199 15.0826C32.9218 16.2527 33.8699 17.2008 35.0401 17.2022Z" fill="#00AAA3"/>
<path d="M35.8949 21.9243H34.1483C31.8545 21.9318 29.9951 23.7862 29.9805 26.0799V26.2606H39.978V26.0799C39.9921 24.986 39.5687 23.9315 38.8022 23.1514C38.0353 22.3708 36.9888 21.929 35.8949 21.9243Z" fill="#00AAA3"/>
<path d="M15.0568 30.6088V15.7813H1.39725C1.02554 15.7705 0.666062 15.9126 0.402101 16.1742C0.13767 16.4363 -0.00724896 16.7948 0.000279323 17.1665V40.5701C0.000279323 41.3653 0.590308 42.04 1.39725 42.04H3.24026C3.49434 42.0348 3.73995 42.1308 3.92298 42.3072C4.10602 42.4832 4.21141 42.7251 4.21612 42.9791V46.4605L9.99784 42.2207C10.1635 42.1054 10.362 42.0466 10.5639 42.0517H31.0286C31.8402 42.0419 32.4994 41.3935 32.5225 40.5823V33.9697H18.4535C16.587 33.98 15.0658 32.4753 15.0568 30.6088Z" fill="#00AAA3"/>
<path d="M51.6022 6.62677H18.4538C17.6586 6.62677 16.9844 7.21679 16.9844 8.01197V30.6086C16.9947 31.4099 17.6525 32.0517 18.4538 32.0422H41.7011C41.9016 32.0455 42.0959 32.1128 42.2549 32.2347L48.4225 36.8241V33.0176C48.4399 32.477 48.8812 32.0465 49.4219 32.0422H51.6022C51.9796 32.0437 52.3414 31.8921 52.6049 31.6221C52.8684 31.3515 53.011 30.9859 52.9997 30.6086V8.01197C53.0091 7.63932 52.8646 7.27984 52.5997 7.0173C52.3353 6.75522 51.9744 6.61406 51.6022 6.62677ZM35.04 11.0473C37.2754 11.0473 39.0874 12.8592 39.0874 15.0942C39.0874 17.3296 37.2754 19.1416 35.04 19.1416C32.8046 19.1416 30.9926 17.3296 30.9926 15.0942C30.9978 12.8611 32.8069 11.052 35.04 11.0473ZM41.918 27.1757C41.918 27.706 41.5445 28.1878 41.0024 28.1878H29.0414C28.4961 28.1652 28.0627 27.7215 28.0538 27.1757V26.0798C28.0669 22.7208 30.7898 20.0036 34.1489 19.997H35.8954C39.2436 19.997 41.918 22.7429 41.918 26.0798V27.1757Z" fill="#00AAA3"/>
</g>
<defs>
<clipPath id="clip0_196_381">
<rect width="53" height="53" fill="white"/>
</clipPath>
</defs>
</svg>
