<svg width="54" height="54" viewBox="0 0 54 54" fill="none" xmlns="http://www.w3.org/2000/svg">
<path d="M40.3281 22.9929C41.4759 22.9929 42.6205 23.1195 43.7404 23.3708V15.7563H28.7404V21.9507C28.7413 22.3273 28.5088 22.665 28.1563 22.7983L15.9044 27.6075C15.7997 27.6531 15.6866 27.6764 15.5725 27.6759C15.0675 27.6741 14.6583 27.2649 14.6565 26.7599V15.7563H0V42.951C0.0165493 44.249 1.07168 45.2943 2.37014 45.2983H26.3587C25.338 43.1885 24.8097 40.8747 24.8129 38.531C24.8017 29.966 31.7632 22.9929 40.3281 22.9929ZM17.8626 41.4052C17.8612 41.9102 17.452 42.3194 16.9466 42.3212H4.23664C3.73121 42.3194 3.32195 41.9102 3.32061 41.4052V34.306C3.32195 33.8005 3.73121 33.3913 4.23664 33.3899H16.9466C17.452 33.3913 17.8612 33.8005 17.8626 34.306V41.4052Z" fill="#00AAA3"/>
<path d="M26.7592 13.924L24.8815 1.78662H18.6294L16.6484 13.924H26.7592Z" fill="#00AAA3"/>
<path d="M43.2938 13.9244L38.9194 3.20663C38.5638 2.33443 37.7086 1.77086 36.767 1.78696H26.7363L28.614 13.9244H43.2938Z" fill="#00AAA3"/>
<path d="M16.4883 25.4203L26.9081 21.321V15.7563H16.4883V25.4203Z" fill="#00AAA3"/>
<path d="M16.7628 1.78696H7.00718C6.06566 1.77086 5.21046 2.33443 4.85442 3.20663L0.480469 13.9244H14.7934L16.7628 1.78696Z" fill="#00AAA3"/>
<path d="M30.584 38.5194C31.8547 40.0424 35.8051 44.2791 40.328 44.2791C44.8625 44.2791 48.7901 40.0541 50.0724 38.5194C48.8013 36.9969 44.8509 32.7603 40.328 32.7603C35.7823 32.7603 31.8547 36.9853 30.584 38.5194ZM45.6296 38.5194C45.6296 41.4473 43.2559 43.8211 40.328 43.8211C37.4001 43.8211 35.0264 41.4473 35.0264 38.5194C35.0264 35.5915 37.4001 33.2183 40.328 33.2183C43.2554 33.2196 45.6278 35.5924 45.6296 38.5194Z" fill="#00AAA3"/>
<path d="M36.8477 38.5194C36.8477 40.4355 38.4011 41.989 40.3172 41.989C42.2334 41.989 43.7863 40.4355 43.7863 38.5194C43.7863 36.6033 42.2334 35.0503 40.3172 35.0503C38.402 35.053 36.8503 36.6046 36.8477 38.5194Z" fill="#00AAA3"/>
<path d="M5.15234 35.2217H16.0302V40.6034H5.15234V35.2217Z" fill="#00AAA3"/>
<path d="M40.316 24.8247C32.7588 24.8247 26.6328 30.9507 26.6328 38.5079C26.6328 46.0647 32.7588 52.1911 40.316 52.1911C47.8728 52.1911 53.9992 46.0647 53.9992 38.5079C54.0104 30.9618 47.8733 24.8247 40.316 24.8247ZM51.9721 37.9698C52.2128 38.2883 52.2128 38.7275 51.9721 39.046C51.7548 39.3439 46.7394 46.0996 40.316 46.0996C33.8922 46.0996 28.8768 39.3322 28.6706 39.046C28.4304 38.7275 28.4304 38.2883 28.6706 37.9698C28.8768 37.6836 33.8922 30.9162 40.316 30.9162C46.7394 30.9162 51.7548 37.6836 51.9721 37.9698Z" fill="#00AAA3"/>
</svg>
