<svg width="53" height="53" viewBox="0 0 53 53" fill="none" xmlns="http://www.w3.org/2000/svg">
<g clip-path="url(#clip0_196_394)">
<path d="M40.4079 24.9819H37.5477C30.4905 25.6853 24.9688 31.6874 24.9688 38.9324C24.9688 46.6577 31.2525 52.9529 38.9778 52.9529C46.7036 52.9529 52.9988 46.6577 52.9988 38.9324C52.9988 31.6874 47.4656 25.6853 40.4079 24.9819ZM39.9743 43.5511C39.9743 44.069 39.5543 44.4889 39.0364 44.4889C38.5185 44.4889 38.0986 44.069 38.0986 43.5511V42.7776C38.0986 42.2597 38.5185 41.8398 39.0364 41.8398C39.5543 41.8398 39.9743 42.2597 39.9743 42.7776V43.5511ZM39.9743 39.7997C39.9743 40.3176 39.5543 40.7375 39.0364 40.7375C38.5185 40.7375 38.0986 40.3176 38.0986 39.7997V34.337C38.0986 33.8191 38.5185 33.3992 39.0364 33.3992C39.5543 33.3992 39.9743 33.8191 39.9743 34.337V39.7997Z" fill="#00AAA3"/>
<path d="M22.625 15.7207H32.3551V23.1062H22.625V15.7207Z" fill="#00AAA3"/>
<path d="M37.4777 23.1062C37.9704 23.1062 38.4741 23.0357 38.9902 23.0357C39.5058 23.0357 40.01 23.1062 40.5023 23.1062H43.2572V15.7207H34.2305V23.1062H37.4777Z" fill="#00AAA3"/>
<path d="M43.2581 5.6272C43.2705 4.99983 42.7723 4.48053 42.1444 4.4668H39.1551V8.65184C39.1606 9.178 38.7429 9.61075 38.2172 9.62494H30.9961C30.4608 9.61487 30.0276 9.1867 30.0111 8.65184V4.4668H13.2471V8.65184C13.232 9.18304 12.8052 9.60983 12.274 9.62494H5.05288C4.52443 9.61212 4.10313 9.18029 4.10313 8.65184V4.4668H1.12566C0.495543 4.47962 -0.00635031 4.99754 6.07407e-05 5.6272V13.8452H43.2581V5.6272Z" fill="#00AAA3"/>
<path d="M31.8867 0.0117188H37.2793V7.74894H31.8867V0.0117188Z" fill="#00AAA3"/>
<path d="M5.97852 0.0117188H11.3711V7.74894H5.97852V0.0117188Z" fill="#00AAA3"/>
<path d="M31.3706 24.9819H22.625V32.3675H24.524C25.9432 29.227 28.3464 26.6346 31.3706 24.9819Z" fill="#00AAA3"/>
<path d="M0 15.7207H9.02675V23.1062H0V15.7207Z" fill="#00AAA3"/>
<path d="M10.9023 24.9819H20.7497V32.3675H10.9023V24.9819Z" fill="#00AAA3"/>
<path d="M22.625 34.2432V42.4493H23.4809C22.8705 39.7324 22.984 36.9028 23.8092 34.2432H22.625Z" fill="#00AAA3"/>
<path d="M0 24.9819H9.02675V32.3675H0V24.9819Z" fill="#00AAA3"/>
<path d="M6.07407e-05 41.2884C-0.00635031 41.9186 0.495543 42.4365 1.12566 42.4493H9.02681V34.2432H6.07407e-05V41.2884Z" fill="#00AAA3"/>
<path d="M10.9023 34.2432H20.7497V42.4493H10.9023V34.2432Z" fill="#00AAA3"/>
<path d="M10.9023 15.7207H20.7497V23.1062H10.9023V15.7207Z" fill="#00AAA3"/>
</g>
<defs>
<clipPath id="clip0_196_394">
<rect width="53" height="53" fill="white"/>
</clipPath>
</defs>
</svg>
