<svg width="25" height="32" viewBox="0 0 25 32" fill="none" xmlns="http://www.w3.org/2000/svg">
<path d="M21.5323 5.33398H20.1991V6.66758C20.1991 8.87317 18.4051 10.6676 16.1992 10.6676H8.19919C5.99319 10.6676 4.1992 8.87317 4.1992 6.66758V5.33398H2.86601C1.39961 5.33398 0.199219 6.53478 0.199219 8.00077V29.3339C0.199219 30.8003 1.39961 32.0007 2.86601 32.0007H21.5323C22.9987 32.0007 24.1991 30.8003 24.1991 29.3339V8.00077C24.1991 6.53478 22.9987 5.33398 21.5323 5.33398ZM8.19919 17.3327H10.8644V14.6675H13.5312V17.3327H16.1992V19.9995H13.5312V22.6675H10.8644V19.9995H8.19919V17.3327ZM20.1991 28.0007H4.1992V25.3339H20.1991V28.0007Z" fill="white"/>
<path d="M16.2003 2.66679H14.8672C14.8672 1.194 13.6732 0 12.2004 0C10.7276 0 9.53358 1.194 9.53358 2.66679H8.20038C7.46719 2.66679 6.86719 3.26679 6.86719 3.99998V6.66677C6.86719 7.39957 7.46719 7.99997 8.20038 7.99997H16.2003C16.9335 7.99997 17.5335 7.39957 17.5335 6.66677V3.99998C17.5335 3.26679 16.9335 2.66679 16.2003 2.66679Z" fill="white"/>
</svg>
