<svg width="36" height="36" viewBox="0 0 36 36" fill="none" xmlns="http://www.w3.org/2000/svg">
<path d="M16.0718 26C7.87196 26 3.19488 20.3694 3 11H7.10743C7.24235 17.8769 10.2705 20.7898 12.669 21.3904V11H16.5365V16.9309C18.9051 16.6757 21.3935 13.973 22.233 11H26.1006C25.7842 12.5419 25.1537 14.0018 24.2483 15.2884C23.3429 16.575 22.1823 17.6607 20.8389 18.4775C22.3384 19.2238 23.6629 20.2802 24.7249 21.5769C25.7869 22.8736 26.5624 24.3811 27 26H22.7427C22.3498 24.5939 21.5513 23.3351 20.4473 22.3816C19.3433 21.428 17.9829 20.8221 16.5365 20.6396V26H16.0718Z" fill="white"/>
</svg>
